<svg xmlns="http://www.w3.org/2000/svg" viewBox="0 0 1800 280" width="1800" height="280" role="img" aria-labelledby="title desc">
<title id="title">antithrombotic-pre-endoscopy contextual handout visual</title>
<desc id="desc">항혈전제, 내시경, 일정표, 출혈 위험을 연결한 안내 그림. Text labels are provided in HTML outside the image.</desc>
<rect x="0" y="0" width="1800" height="280" rx="0" fill="#FFFFFF"></rect>
<path d="M 0 246 C 280 196, 500 262, 790 234 C 1120 202, 1320 274, 1800 226 L 1800 280 L 0 280 Z" fill="#EAF3FB" opacity="0.55"></path>
<path d="M 100 140 C 430 44, 650 230, 900 140 C 1150 50, 1380 230, 1700 132" fill="none" stroke="#7A2E0E" stroke-width="8" stroke-linecap="round" stroke-linejoin="round" opacity="0.16"></path>
<rect x="100" y="40" width="290" height="200" rx="4" fill="#FFFFFF" stroke="#D9E6F2" stroke-width="24"></rect>
<line x1="400" y1="140" x2="525" y2="140" stroke="#B9D6EA" stroke-width="7" stroke-linecap="round"></line>
<polygon points="508,126 530,140 508,154" fill="#B9D6EA"></polygon>
<circle cx="245" cy="140" r="74" fill="#FFFFFF" stroke="#D7E6F2" stroke-width="4"></circle><circle cx="215" cy="112" r="18" fill="#7A2E0E" opacity="0.12"></circle><rect x="197" y="122" width="96" height="36" rx="6" fill="#FFFFFF" stroke="#003366" stroke-width="18"></rect><line x1="245" y1="122" x2="245" y2="158" stroke="#D0D5DD" stroke-width="5" stroke-linecap="round"></line><path d="M 201 178 C 221 164, 269 164, 289 178" fill="none" stroke="#7A2E0E" stroke-width="6" stroke-linecap="round" stroke-linejoin="round"></path><line x1="227" y1="82" x2="227" y2="108" stroke="#F04438" stroke-width="9" stroke-linecap="round"></line><line x1="263" y1="82" x2="263" y2="108" stroke="#F04438" stroke-width="9" stroke-linecap="round"></line>
<rect x="535" y="40" width="290" height="200" rx="4" fill="#FFFFFF" stroke="#D9E6F2" stroke-width="24"></rect>
<line x1="835" y1="140" x2="960" y2="140" stroke="#B9D6EA" stroke-width="7" stroke-linecap="round"></line>
<polygon points="943,126 965,140 943,154" fill="#B9D6EA"></polygon>
<circle cx="680" cy="140" r="74" fill="#FFFFFF" stroke="#D7E6F2" stroke-width="4"></circle><circle cx="650" cy="112" r="18" fill="#7A2E0E" opacity="0.12"></circle><path d="M 628 114 C 672 78, 728 98, 730 142 C 732 184, 672 194, 636 158" fill="none" stroke="#7A2E0E" stroke-width="12" stroke-linecap="round" stroke-linejoin="round"></path><circle cx="628" cy="114" r="13" fill="#FFFFFF" stroke="#003366" stroke-width="5"></circle><rect x="712" y="82" width="42" height="30" rx="5" fill="#FFFFFF" stroke="#003366" stroke-width="8"></rect>
<rect x="970" y="40" width="290" height="200" rx="4" fill="#FFFFFF" stroke="#D9E6F2" stroke-width="24"></rect>
<line x1="1270" y1="140" x2="1395" y2="140" stroke="#B9D6EA" stroke-width="7" stroke-linecap="round"></line>
<polygon points="1378,126 1400,140 1378,154" fill="#B9D6EA"></polygon>
<circle cx="1115" cy="140" r="74" fill="#FFFFFF" stroke="#D7E6F2" stroke-width="4"></circle><circle cx="1085" cy="112" r="18" fill="#7A2E0E" opacity="0.12"></circle><rect x="1065" y="98" width="100" height="84" rx="5" fill="#FFFFFF" stroke="#003366" stroke-width="12"></rect><rect x="1065" y="98" width="100" height="20" rx="12" fill="#7A2E0E"></rect><line x1="1083" y1="136" x2="1147" y2="136" stroke="#D0D5DD" stroke-width="4" stroke-linecap="round"></line><line x1="1083" y1="154" x2="1147" y2="154" stroke="#D0D5DD" stroke-width="4" stroke-linecap="round"></line><line x1="1083" y1="172" x2="1147" y2="172" stroke="#D0D5DD" stroke-width="4" stroke-linecap="round"></line>
<rect x="1405" y="40" width="290" height="200" rx="4" fill="#FFFFFF" stroke="#D9E6F2" stroke-width="24"></rect>
<circle cx="1550" cy="140" r="74" fill="#FFFFFF" stroke="#D7E6F2" stroke-width="4"></circle><circle cx="1520" cy="112" r="18" fill="#7A2E0E" opacity="0.12"></circle><path d="M 1550 82 L 1612 190 L 1488 190 Z" fill="#FFF4E5" stroke="#F79009" stroke-width="6" stroke-linecap="round" stroke-linejoin="round"></path><line x1="1550" y1="122" x2="1550" y2="160" stroke="#F04438" stroke-width="8" stroke-linecap="round"></line><circle cx="1550" cy="176" r="6" fill="#F04438"></circle><path d="M 1598 98 C 1622 128, 1616 165, 1594 168 C 1572 165, 1572 128, 1598 98 Z" fill="#FEE4E2" stroke="#F04438" stroke-width="4" stroke-linecap="round" stroke-linejoin="round"></path>
</svg>
