<svg xmlns="http://www.w3.org/2000/svg" viewBox="0 0 1800 280" width="1800" height="280" role="img" aria-labelledby="title desc">
<title id="title">blood-draw-prep contextual handout visual</title>
<desc id="desc">채혈 전 준비: 금식, 물 섭취, 채혈 튜브, 시간 확인. Text labels are provided in HTML outside the image.</desc>
<rect x="0" y="0" width="1800" height="280" rx="0" fill="#FFFFFF"></rect>
<path d="M 0 246 C 280 196, 500 262, 790 234 C 1120 202, 1320 274, 1800 226 L 1800 280 L 0 280 Z" fill="#EAF3FB" opacity="0.55"></path>
<path d="M 100 140 C 430 44, 650 230, 900 140 C 1150 50, 1380 230, 1700 132" fill="none" stroke="#1570EF" stroke-width="8" stroke-linecap="round" stroke-linejoin="round" opacity="0.16"></path>
<rect x="100" y="40" width="290" height="200" rx="4" fill="#FFFFFF" stroke="#D9E6F2" stroke-width="24"></rect>
<line x1="400" y1="140" x2="525" y2="140" stroke="#B9D6EA" stroke-width="7" stroke-linecap="round"></line>
<polygon points="508,126 530,140 508,154" fill="#B9D6EA"></polygon>
<circle cx="245" cy="140" r="74" fill="#FFFFFF" stroke="#D7E6F2" stroke-width="4"></circle><circle cx="215" cy="112" r="18" fill="#1570EF" opacity="0.12"></circle><circle cx="245" cy="140" r="52" fill="#FFFFFF" stroke="#003366" stroke-width="5"></circle><path d="M 227 98 C 269 124, 269 164, 227 184 C 201 160, 203 122, 227 98 Z" fill="#FFF4E5" stroke="#F79009" stroke-width="5" stroke-linecap="round" stroke-linejoin="round"></path><line x1="187" y1="82" x2="303" y2="198" stroke="#F04438" stroke-width="9" stroke-linecap="round"></line>
<rect x="535" y="40" width="290" height="200" rx="4" fill="#FFFFFF" stroke="#D9E6F2" stroke-width="24"></rect>
<line x1="835" y1="140" x2="960" y2="140" stroke="#B9D6EA" stroke-width="7" stroke-linecap="round"></line>
<polygon points="943,126 965,140 943,154" fill="#B9D6EA"></polygon>
<circle cx="680" cy="140" r="74" fill="#FFFFFF" stroke="#D7E6F2" stroke-width="4"></circle><circle cx="650" cy="112" r="18" fill="#1570EF" opacity="0.12"></circle><circle cx="664" cy="128" r="26" fill="#FDB022" stroke="#003366" stroke-width="4"></circle><path d="M 680 82 C 722 128, 712 188, 680 188 C 648 188, 638 128, 680 82 Z" fill="#E0F2FE" stroke="#1570EF" stroke-width="5" stroke-linecap="round" stroke-linejoin="round"></path>
<rect x="970" y="40" width="290" height="200" rx="4" fill="#FFFFFF" stroke="#D9E6F2" stroke-width="24"></rect>
<line x1="1270" y1="140" x2="1395" y2="140" stroke="#B9D6EA" stroke-width="7" stroke-linecap="round"></line>
<polygon points="1378,126 1400,140 1378,154" fill="#B9D6EA"></polygon>
<circle cx="1115" cy="140" r="74" fill="#FFFFFF" stroke="#D7E6F2" stroke-width="4"></circle><circle cx="1085" cy="112" r="18" fill="#1570EF" opacity="0.12"></circle><rect x="1097" y="80" width="36" height="102" rx="5" fill="#FFFFFF" stroke="#003366" stroke-width="12"></rect><rect x="1097" y="144" width="36" height="38" rx="10" fill="#FEE4E2"></rect><line x1="1079" y1="80" x2="1151" y2="80" stroke="#1570EF" stroke-width="8" stroke-linecap="round"></line>
<rect x="1405" y="40" width="290" height="200" rx="4" fill="#FFFFFF" stroke="#D9E6F2" stroke-width="24"></rect>
<circle cx="1550" cy="140" r="74" fill="#FFFFFF" stroke="#D7E6F2" stroke-width="4"></circle><circle cx="1520" cy="112" r="18" fill="#1570EF" opacity="0.12"></circle><circle cx="1550" cy="140" r="48" fill="#FFFFFF" stroke="#003366" stroke-width="6"></circle><line x1="1550" y1="140" x2="1550" y2="112" stroke="#1570EF" stroke-width="7" stroke-linecap="round"></line><line x1="1550" y1="140" x2="1574" y2="152" stroke="#003366" stroke-width="6" stroke-linecap="round"></line>
</svg>
