<svg width="900" height="380" viewBox="0 0 900 380" xmlns="http://www.w3.org/2000/svg" role="img" aria-labelledby="title desc">
  <title id="title">DXA bone density exam illustration</title>
  <desc id="desc">A patient lying on a DXA scanner table with highlighted lumbar spine and hip measurement areas.</desc>
  <defs>
    <linearGradient id="bg" x1="0" y1="0" x2="1" y2="1">
      <stop offset="0" stop-color="#F8FAFC"/>
      <stop offset="1" stop-color="#EAF4FB"/>
    </linearGradient>
    <linearGradient id="table" x1="0" y1="0" x2="1" y2="0">
      <stop offset="0" stop-color="#D7E8F6"/>
      <stop offset="1" stop-color="#F5F9FC"/>
    </linearGradient>
    <filter id="shadow" x="-20%" y="-20%" width="140%" height="140%">
      <feDropShadow dx="0" dy="10" stdDeviation="12" flood-color="#0F2F4A" flood-opacity="0.14"/>
    </filter>
  </defs>
  <rect width="900" height="380" rx="28" fill="url(#bg)"/>
  <path d="M44 305C156 252 246 256 340 291C449 331 538 325 650 273C740 231 810 235 856 263V380H44Z" fill="#E1EEF7" opacity=".72"/>
  <g filter="url(#shadow)">
    <rect x="128" y="225" width="624" height="45" rx="18" fill="url(#table)" stroke="#B9D2E6" stroke-width="3"/>
    <rect x="168" y="270" width="42" height="58" rx="10" fill="#BFD7EA"/>
    <rect x="670" y="270" width="42" height="58" rx="10" fill="#BFD7EA"/>
  </g>
  <g opacity=".95">
    <path d="M621 63H698C727 63 750 86 750 115V221" fill="none" stroke="#003366" stroke-width="18" stroke-linecap="round"/>
    <rect x="563" y="40" width="104" height="48" rx="16" fill="#003366"/>
    <rect x="538" y="82" width="154" height="38" rx="17" fill="#5B9BD5"/>
    <circle cx="750" cy="221" r="21" fill="#003366"/>
  </g>
  <g opacity=".2">
    <path d="M600 124L482 222M635 124L511 222M670 124L542 222" stroke="#5B9BD5" stroke-width="8" stroke-linecap="round"/>
  </g>
  <g transform="translate(205 157)">
    <ellipse cx="38" cy="31" rx="31" ry="30" fill="#F2C7AA"/>
    <path d="M13 23C19 3 55-2 66 21C51 13 35 12 13 23Z" fill="#24364C"/>
    <path d="M75 59C122 52 172 57 213 72C249 85 284 91 330 89C374 87 428 85 478 104C490 109 496 123 490 136C484 149 468 153 456 147C417 130 377 129 337 131C285 133 238 126 198 111C158 96 117 91 80 99C61 103 44 90 42 72C41 63 55 61 75 59Z" fill="#DDE9F4" stroke="#93B7D2" stroke-width="3"/>
    <path d="M70 100C126 128 191 142 260 144C316 145 391 132 459 151" fill="none" stroke="#789BB7" stroke-width="10" stroke-linecap="round" opacity=".5"/>
    <path d="M245 94C252 101 257 111 258 124C257 136 250 143 240 146C229 148 220 143 218 134C216 124 220 111 227 101C231 95 238 91 245 94Z" fill="#F5FBFF" stroke="#5B9BD5" stroke-width="4"/>
    <path d="M287 95C307 98 329 98 349 95C354 111 353 128 346 144C327 150 307 150 289 144C282 128 282 111 287 95Z" fill="#F5FBFF" stroke="#5B9BD5" stroke-width="4"/>
    <path d="M136 73C162 83 194 92 229 95" fill="none" stroke="#F5FBFF" stroke-width="11" stroke-linecap="round"/>
    <path d="M147 77L160 73M172 85L185 81M198 91L211 88" stroke="#5B9BD5" stroke-width="3" stroke-linecap="round"/>
  </g>
  <g transform="translate(76 64)">
    <rect width="184" height="58" rx="18" fill="#FFF" opacity=".93" stroke="#D9E6F0"/>
    <circle cx="31" cy="29" r="17" fill="#EEF6FC"/>
    <path d="M24 29H38M31 22V36" stroke="#003366" stroke-width="4" stroke-linecap="round"/>
    <path d="M62 21H156" stroke="#003366" stroke-width="7" stroke-linecap="round"/>
    <path d="M62 39H132" stroke="#5B9BD5" stroke-width="6" stroke-linecap="round"/>
  </g>
  <g transform="translate(684 54)">
    <circle cx="46" cy="46" r="42" fill="#FFF" opacity=".88" stroke="#D9E6F0"/>
    <path d="M34 20C46 27 55 37 59 51C62 62 59 73 50 81" fill="none" stroke="#003366" stroke-width="8" stroke-linecap="round"/>
    <path d="M38 39H57M41 54H62M39 68H54" stroke="#5B9BD5" stroke-width="5" stroke-linecap="round"/>
  </g>
</svg>
