<svg xmlns="http://www.w3.org/2000/svg" viewBox="0 0 1120 104" role="img"><rect width="1120" height="104" fill="#FBFDFF"/><path d="M0 91C180 52 290 123 470 74S760 22 1120 77v27H0Z" fill="#5B9BD5" opacity=".10"/><path d="M0 13C198 46 330-10 505 24S830 73 1120 27" fill="none" stroke="#8A5CF6" stroke-width="3" opacity=".18"/><rect x="64" y="18" width="398" height="68" rx="18" fill="#fff" stroke="#5B9BD5" stroke-width="3"/><path d="M88 54h120l28-26 28 45 30-32 28 13h116" fill="none" stroke="#0B3D5C" stroke-width="6" stroke-linecap="round" stroke-linejoin="round"/><path d="M450 52C505 3 615 3 670 52C615 101 505 101 450 52Z" fill="#fff" stroke="#0B3D5C" stroke-width="6"/><circle cx="560" cy="52" r="28" fill="#5B9BD5"/><path d="M547 28c-18 28-5 39-32 56M573 28c20 25 6 41 37 55" fill="none" stroke="#F97316" stroke-width="4" stroke-linecap="round"/></svg>