<svg xmlns="http://www.w3.org/2000/svg" viewBox="0 0 1120 104" role="img"><rect width="1120" height="104" fill="#FBFDFF"/><path d="M0 91C180 52 290 123 470 74S760 22 1120 77v27H0Z" fill="#5B9BD5" opacity=".10"/><path d="M0 13C198 46 330-10 505 24S830 73 1120 27" fill="none" stroke="#8A5CF6" stroke-width="3" opacity=".18"/><circle cx="180" cy="52" r="18" fill="#0B3D5C" opacity=".55"/><circle cx="360" cy="52" r="18" fill="#5B9BD5" opacity=".55"/><circle cx="540" cy="52" r="18" fill="#8A5CF6" opacity=".55"/><circle cx="720" cy="52" r="18" fill="#F97316" opacity=".55"/><circle cx="900" cy="52" r="18" fill="#0B3D5C" opacity=".55"/><path d="M205 52h110" stroke="#0B3D5C" stroke-width="4" opacity=".25"/><path d="M385 52h110" stroke="#0B3D5C" stroke-width="4" opacity=".25"/><path d="M565 52h110" stroke="#0B3D5C" stroke-width="4" opacity=".25"/><path d="M745 52h110" stroke="#0B3D5C" stroke-width="4" opacity=".25"/><circle cx="508" cy="25" r="16" fill="#0B3D5C"/><path d="M508 45v44M478 58c30 16 42 22 70 33" stroke="#0B3D5C" stroke-width="8" stroke-linecap="round" fill="none"/><path d="M588 22c76 6 91 70 31 76" fill="none" stroke="#5B9BD5" stroke-width="8" stroke-linecap="round"/><path d="M619 98l18-15M619 98l24 6" stroke="#5B9BD5" stroke-width="7" stroke-linecap="round"/></svg>