<svg xmlns="http://www.w3.org/2000/svg" viewBox="0 0 1120 104" role="img"><rect width="1120" height="104" fill="#F8FBFD"/><path d="M0 91C180 52 290 123 470 74S760 22 1120 77v27H0Z" fill="#5B9BD5" opacity=".10"/><path d="M0 13C198 46 330-10 505 24S830 73 1120 27" fill="none" stroke="#2A9D8F" stroke-width="3" opacity=".18"/><path d="M450 52C505 3 615 3 670 52C615 101 505 101 450 52Z" fill="#fff" stroke="#003366" stroke-width="6"/><circle cx="560" cy="52" r="28" fill="#5B9BD5"/><path d="M547 28c-18 28-5 39-32 56M573 28c20 25 6 41 37 55" fill="none" stroke="#F4B942" stroke-width="4" stroke-linecap="round"/><path d="M760 18l62 70H698Z" fill="#F4B942" stroke="#003366" stroke-width="5" opacity=".85"/><circle cx="760" cy="69" r="8" fill="#003366"/><path d="M760 38v17" stroke="#003366" stroke-width="7" stroke-linecap="round"/></svg>