<svg xmlns="http://www.w3.org/2000/svg" viewBox="0 0 1120 104" role="img"><rect width="1120" height="104" fill="#F8FBFD"/><path d="M0 91C180 52 290 123 470 74S760 22 1120 77v27H0Z" fill="#5B9BD5" opacity=".10"/><path d="M0 13C198 46 330-10 505 24S830 73 1120 27" fill="none" stroke="#2A9D8F" stroke-width="3" opacity=".18"/><rect x="64" y="18" width="398" height="68" rx="18" fill="#fff" stroke="#5B9BD5" stroke-width="3"/><path d="M88 54h120l28-26 28 45 30-32 28 13h116" fill="none" stroke="#003366" stroke-width="6" stroke-linecap="round" stroke-linejoin="round"/><path d="M560 73C508 39 530 12 555 26C570 4 612 17 608 48C606 65 584 76 560 90Z" fill="#003366"/><path d="M430 53h73l17-24 27 50 21-35 17 9h105" fill="none" stroke="#5B9BD5" stroke-width="7" stroke-linecap="round" stroke-linejoin="round"/></svg>