<svg xmlns="http://www.w3.org/2000/svg" viewBox="0 0 1120 104" role="img"><rect width="1120" height="104" fill="#FBFCF8"/><path d="M0 91C180 52 290 123 470 74S760 22 1120 77v27H0Z" fill="#6C8EBF" opacity=".10"/><path d="M0 13C198 46 330-10 505 24S830 73 1120 27" fill="none" stroke="#D95D39" stroke-width="3" opacity=".18"/><path d="M560 73C508 39 530 12 555 26C570 4 612 17 608 48C606 65 584 76 560 90Z" fill="#003366"/><path d="M430 53h73l17-24 27 50 21-35 17 9h105" fill="none" stroke="#6C8EBF" stroke-width="7" stroke-linecap="round" stroke-linejoin="round"/><path d="M760 18l62 70H698Z" fill="#7CB342" stroke="#003366" stroke-width="5" opacity=".85"/><circle cx="760" cy="69" r="8" fill="#003366"/><path d="M760 38v17" stroke="#003366" stroke-width="7" stroke-linecap="round"/></svg>