<svg xmlns="http://www.w3.org/2000/svg" viewBox="0 0 1120 104" role="img"><rect width="1120" height="104" fill="#F8FBFD"/><path d="M0 91C180 52 290 123 470 74S760 22 1120 77v27H0Z" fill="#5B9BD5" opacity=".10"/><path d="M0 13C198 46 330-10 505 24S830 73 1120 27" fill="none" stroke="#2A9D8F" stroke-width="3" opacity=".18"/><circle cx="180" cy="52" r="18" fill="#003366" opacity=".55"/><circle cx="360" cy="52" r="18" fill="#5B9BD5" opacity=".55"/><circle cx="540" cy="52" r="18" fill="#2A9D8F" opacity=".55"/><circle cx="720" cy="52" r="18" fill="#F4B942" opacity=".55"/><circle cx="900" cy="52" r="18" fill="#003366" opacity=".55"/><path d="M205 52h110" stroke="#003366" stroke-width="4" opacity=".25"/><path d="M385 52h110" stroke="#003366" stroke-width="4" opacity=".25"/><path d="M565 52h110" stroke="#003366" stroke-width="4" opacity=".25"/><path d="M745 52h110" stroke="#003366" stroke-width="4" opacity=".25"/><path d="M560 73C508 39 530 12 555 26C570 4 612 17 608 48C606 65 584 76 560 90Z" fill="#003366"/><path d="M430 53h73l17-24 27 50 21-35 17 9h105" fill="none" stroke="#5B9BD5" stroke-width="7" stroke-linecap="round" stroke-linejoin="round"/></svg>