<svg xmlns="http://www.w3.org/2000/svg" viewBox="0 0 1800 280" width="1800" height="280" role="img" aria-labelledby="title desc">
<title id="title">checkup-prep contextual handout visual</title>
<desc id="desc">건강검진 준비: 일정 확인, 금식, 신분증, 병원 방문. Text labels are provided in HTML outside the image.</desc>
<rect x="0" y="0" width="1800" height="280" rx="0" fill="#FFFFFF"></rect>
<path d="M 0 246 C 280 196, 500 262, 790 234 C 1120 202, 1320 274, 1800 226 L 1800 280 L 0 280 Z" fill="#EAF3FB" opacity="0.55"></path>
<path d="M 100 140 C 430 44, 650 230, 900 140 C 1150 50, 1380 230, 1700 132" fill="none" stroke="#2563EB" stroke-width="8" stroke-linecap="round" stroke-linejoin="round" opacity="0.16"></path>
<rect x="100" y="40" width="290" height="200" rx="4" fill="#FFFFFF" stroke="#D9E6F2" stroke-width="24"></rect>
<line x1="400" y1="140" x2="525" y2="140" stroke="#B9D6EA" stroke-width="7" stroke-linecap="round"></line>
<polygon points="508,126 530,140 508,154" fill="#B9D6EA"></polygon>
<circle cx="245" cy="140" r="74" fill="#FFFFFF" stroke="#D7E6F2" stroke-width="4"></circle><circle cx="215" cy="112" r="18" fill="#2563EB" opacity="0.12"></circle><rect x="195" y="98" width="100" height="84" rx="5" fill="#FFFFFF" stroke="#003366" stroke-width="12"></rect><rect x="195" y="98" width="100" height="20" rx="12" fill="#2563EB"></rect><line x1="213" y1="136" x2="277" y2="136" stroke="#D0D5DD" stroke-width="4" stroke-linecap="round"></line><line x1="213" y1="154" x2="277" y2="154" stroke="#D0D5DD" stroke-width="4" stroke-linecap="round"></line><line x1="213" y1="172" x2="277" y2="172" stroke="#D0D5DD" stroke-width="4" stroke-linecap="round"></line>
<rect x="535" y="40" width="290" height="200" rx="4" fill="#FFFFFF" stroke="#D9E6F2" stroke-width="24"></rect>
<line x1="835" y1="140" x2="960" y2="140" stroke="#B9D6EA" stroke-width="7" stroke-linecap="round"></line>
<polygon points="943,126 965,140 943,154" fill="#B9D6EA"></polygon>
<circle cx="680" cy="140" r="74" fill="#FFFFFF" stroke="#D7E6F2" stroke-width="4"></circle><circle cx="650" cy="112" r="18" fill="#2563EB" opacity="0.12"></circle><circle cx="680" cy="140" r="52" fill="#FFFFFF" stroke="#003366" stroke-width="5"></circle><path d="M 662 98 C 704 124, 704 164, 662 184 C 636 160, 638 122, 662 98 Z" fill="#FFF4E5" stroke="#F79009" stroke-width="5" stroke-linecap="round" stroke-linejoin="round"></path><line x1="622" y1="82" x2="738" y2="198" stroke="#F04438" stroke-width="9" stroke-linecap="round"></line>
<rect x="970" y="40" width="290" height="200" rx="4" fill="#FFFFFF" stroke="#D9E6F2" stroke-width="24"></rect>
<line x1="1270" y1="140" x2="1395" y2="140" stroke="#B9D6EA" stroke-width="7" stroke-linecap="round"></line>
<polygon points="1378,126 1400,140 1378,154" fill="#B9D6EA"></polygon>
<circle cx="1115" cy="140" r="74" fill="#FFFFFF" stroke="#D7E6F2" stroke-width="4"></circle><circle cx="1085" cy="112" r="18" fill="#2563EB" opacity="0.12"></circle><rect x="1057" y="102" width="116" height="76" rx="5" fill="#FFFFFF" stroke="#003366" stroke-width="12"></rect><circle cx="1087" cy="140" r="18" fill="#D1E9FF" stroke="#5B9BD5" stroke-width="4"></circle><line x1="1117" y1="126" x2="1151" y2="126" stroke="#98A2B3" stroke-width="5" stroke-linecap="round"></line><line x1="1117" y1="150" x2="1143" y2="150" stroke="#98A2B3" stroke-width="5" stroke-linecap="round"></line>
<rect x="1405" y="40" width="290" height="200" rx="4" fill="#FFFFFF" stroke="#D9E6F2" stroke-width="24"></rect>
<circle cx="1550" cy="140" r="74" fill="#FFFFFF" stroke="#D7E6F2" stroke-width="4"></circle><circle cx="1520" cy="112" r="18" fill="#2563EB" opacity="0.12"></circle><path d="M 1492 184 L 1492 122 L 1550 78 L 1608 122 L 1608 184 Z" fill="#FFFFFF" stroke="#003366" stroke-width="5" stroke-linecap="round" stroke-linejoin="round"></path><rect x="1530" y="144" width="40" height="40" rx="4" fill="#EAF3FB" stroke="#2563EB" stroke-width="6"></rect>
</svg>
