<svg xmlns="http://www.w3.org/2000/svg" viewBox="0 0 1800 280" width="1800" height="280" role="img" aria-labelledby="title desc">
<title id="title">chronic-disease-intake contextual handout visual</title>
<desc id="desc">만성질환 문진 준비: 문진표, 병력 흐름, 복용약, 치료 목표. Text labels are provided in HTML outside the image.</desc>
<rect x="0" y="0" width="1800" height="280" rx="0" fill="#FFFFFF"></rect>
<path d="M 0 246 C 280 196, 500 262, 790 234 C 1120 202, 1320 274, 1800 226 L 1800 280 L 0 280 Z" fill="#EAF3FB" opacity="0.55"></path>
<path d="M 100 140 C 430 44, 650 230, 900 140 C 1150 50, 1380 230, 1700 132" fill="none" stroke="#344054" stroke-width="8" stroke-linecap="round" stroke-linejoin="round" opacity="0.16"></path>
<rect x="100" y="40" width="290" height="200" rx="4" fill="#FFFFFF" stroke="#D9E6F2" stroke-width="24"></rect>
<line x1="400" y1="140" x2="525" y2="140" stroke="#B9D6EA" stroke-width="7" stroke-linecap="round"></line>
<polygon points="508,126 530,140 508,154" fill="#B9D6EA"></polygon>
<circle cx="245" cy="140" r="74" fill="#FFFFFF" stroke="#D7E6F2" stroke-width="4"></circle><circle cx="215" cy="112" r="18" fill="#344054" opacity="0.12"></circle><rect x="197" y="84" width="96" height="112" rx="5" fill="#FFFFFF" stroke="#003366" stroke-width="12"></rect><rect x="225" y="72" width="40" height="20" rx="4" fill="#EAF3FB" stroke="#003366" stroke-width="8"></rect><circle cx="217" cy="115" r="6" fill="#344054"></circle><line x1="233" y1="115" x2="277" y2="115" stroke="#98A2B3" stroke-width="5" stroke-linecap="round"></line><circle cx="217" cy="143" r="6" fill="#344054"></circle><line x1="233" y1="143" x2="277" y2="143" stroke="#98A2B3" stroke-width="5" stroke-linecap="round"></line><circle cx="217" cy="171" r="6" fill="#344054"></circle><line x1="233" y1="171" x2="277" y2="171" stroke="#98A2B3" stroke-width="5" stroke-linecap="round"></line>
<rect x="535" y="40" width="290" height="200" rx="4" fill="#FFFFFF" stroke="#D9E6F2" stroke-width="24"></rect>
<line x1="835" y1="140" x2="960" y2="140" stroke="#B9D6EA" stroke-width="7" stroke-linecap="round"></line>
<polygon points="943,126 965,140 943,154" fill="#B9D6EA"></polygon>
<circle cx="680" cy="140" r="74" fill="#FFFFFF" stroke="#D7E6F2" stroke-width="4"></circle><circle cx="650" cy="112" r="18" fill="#344054" opacity="0.12"></circle><line x1="622" y1="140" x2="738" y2="140" stroke="#003366" stroke-width="6" stroke-linecap="round"></line><circle cx="636" cy="140" r="13" fill="#FFFFFF" stroke="#344054" stroke-width="5"></circle><circle cx="680" cy="140" r="13" fill="#FFFFFF" stroke="#344054" stroke-width="5"></circle><circle cx="724" cy="140" r="13" fill="#FFFFFF" stroke="#344054" stroke-width="5"></circle>
<rect x="970" y="40" width="290" height="200" rx="4" fill="#FFFFFF" stroke="#D9E6F2" stroke-width="24"></rect>
<line x1="1270" y1="140" x2="1395" y2="140" stroke="#B9D6EA" stroke-width="7" stroke-linecap="round"></line>
<polygon points="1378,126 1400,140 1378,154" fill="#B9D6EA"></polygon>
<circle cx="1115" cy="140" r="74" fill="#FFFFFF" stroke="#D7E6F2" stroke-width="4"></circle><circle cx="1085" cy="112" r="18" fill="#344054" opacity="0.12"></circle><rect x="1067" y="122" width="96" height="36" rx="6" fill="#FFFFFF" stroke="#003366" stroke-width="18"></rect><line x1="1115" y1="122" x2="1115" y2="158" stroke="#D0D5DD" stroke-width="5" stroke-linecap="round"></line><path d="M 1071 178 C 1091 164, 1139 164, 1159 178" fill="none" stroke="#344054" stroke-width="6" stroke-linecap="round" stroke-linejoin="round"></path>
<rect x="1405" y="40" width="290" height="200" rx="4" fill="#FFFFFF" stroke="#D9E6F2" stroke-width="24"></rect>
<circle cx="1550" cy="140" r="74" fill="#FFFFFF" stroke="#D7E6F2" stroke-width="4"></circle><circle cx="1520" cy="112" r="18" fill="#344054" opacity="0.12"></circle><circle cx="1550" cy="140" r="54" fill="#FFFFFF" stroke="#003366" stroke-width="5"></circle><circle cx="1550" cy="140" r="36" fill="#EAF3FB" stroke="#344054" stroke-width="5"></circle><circle cx="1550" cy="140" r="14" fill="#344054"></circle>
</svg>
