<svg xmlns="http://www.w3.org/2000/svg" viewBox="0 0 1800 280" width="1800" height="280" role="img" aria-labelledby="title desc">
<title id="title">cpr-flowchart contextual handout visual</title>
<desc id="desc">심폐소생술 핵심 순서: 가슴 중앙 압박, 충분한 깊이, 119 요청, AED 연결. Text labels are provided in HTML outside the image.</desc>
<rect x="0" y="0" width="1800" height="280" rx="0" fill="#FFFFFF"></rect>
<path d="M 0 246 C 280 196, 500 262, 790 234 C 1120 202, 1320 274, 1800 226 L 1800 280 L 0 280 Z" fill="#EAF3FB" opacity="0.55"></path>
<path d="M 100 140 C 430 44, 650 230, 900 140 C 1150 50, 1380 230, 1700 132" fill="none" stroke="#D63A3A" stroke-width="8" stroke-linecap="round" stroke-linejoin="round" opacity="0.16"></path>
<rect x="100" y="40" width="290" height="200" rx="4" fill="#FFFFFF" stroke="#D9E6F2" stroke-width="24"></rect>
<line x1="400" y1="140" x2="525" y2="140" stroke="#B9D6EA" stroke-width="7" stroke-linecap="round"></line>
<polygon points="508,126 530,140 508,154" fill="#B9D6EA"></polygon>
<circle cx="245" cy="140" r="74" fill="#FFFFFF" stroke="#D7E6F2" stroke-width="4"></circle><circle cx="215" cy="112" r="18" fill="#D63A3A" opacity="0.12"></circle><rect x="197" y="125" width="42" height="58" rx="5" fill="#FFE7CC" stroke="#003366" stroke-width="16"></rect><rect x="251" y="125" width="42" height="58" rx="5" fill="#FFE7CC" stroke="#003366" stroke-width="16"></rect><line x1="209" y1="148" x2="281" y2="148" stroke="#D63A3A" stroke-width="9" stroke-linecap="round"></line><circle cx="245" cy="102" r="28" fill="#FEE4E2" stroke="#D63A3A" stroke-width="5"></circle>
<rect x="535" y="40" width="290" height="200" rx="4" fill="#FFFFFF" stroke="#D9E6F2" stroke-width="24"></rect>
<line x1="835" y1="140" x2="960" y2="140" stroke="#B9D6EA" stroke-width="7" stroke-linecap="round"></line>
<polygon points="943,126 965,140 943,154" fill="#B9D6EA"></polygon>
<circle cx="680" cy="140" r="74" fill="#FFFFFF" stroke="#D7E6F2" stroke-width="4"></circle><circle cx="650" cy="112" r="18" fill="#D63A3A" opacity="0.12"></circle><rect x="632" y="125" width="42" height="58" rx="5" fill="#FFE7CC" stroke="#003366" stroke-width="16"></rect><rect x="686" y="125" width="42" height="58" rx="5" fill="#FFE7CC" stroke="#003366" stroke-width="16"></rect><line x1="644" y1="148" x2="716" y2="148" stroke="#D63A3A" stroke-width="9" stroke-linecap="round"></line><circle cx="680" cy="102" r="28" fill="#FEE4E2" stroke="#D63A3A" stroke-width="5"></circle><path d="M 672 78 L 672 122 M 656 105 L 672 122 L 688 105" fill="none" stroke="#003366" stroke-width="6" stroke-linecap="round" stroke-linejoin="round"></path>
<rect x="970" y="40" width="290" height="200" rx="4" fill="#FFFFFF" stroke="#D9E6F2" stroke-width="24"></rect>
<line x1="1270" y1="140" x2="1395" y2="140" stroke="#B9D6EA" stroke-width="7" stroke-linecap="round"></line>
<polygon points="1378,126 1400,140 1378,154" fill="#B9D6EA"></polygon>
<circle cx="1115" cy="140" r="74" fill="#FFFFFF" stroke="#D7E6F2" stroke-width="4"></circle><circle cx="1085" cy="112" r="18" fill="#D63A3A" opacity="0.12"></circle><rect x="1087" y="88" width="56" height="104" rx="6" fill="#FFFFFF" stroke="#003366" stroke-width="12"></rect><circle cx="1115" cy="176" r="5" fill="#D63A3A"></circle><line x1="1099" y1="110" x2="1131" y2="110" stroke="#5B9BD5" stroke-width="5" stroke-linecap="round"></line>
<rect x="1405" y="40" width="290" height="200" rx="4" fill="#FFFFFF" stroke="#D9E6F2" stroke-width="24"></rect>
<circle cx="1550" cy="140" r="74" fill="#FFFFFF" stroke="#D7E6F2" stroke-width="4"></circle><circle cx="1520" cy="112" r="18" fill="#D63A3A" opacity="0.12"></circle><rect x="1502" y="102" width="96" height="76" rx="6" fill="#FFFFFF" stroke="#003366" stroke-width="14"></rect><path d="M 1540 114 L 1520 145 L 1546 145 L 1530 170 L 1578 132 L 1552 132 L 1566 114 Z" fill="#D63A3A"></path><line x1="1580" y1="152" x2="1608" y2="174" stroke="#003366" stroke-width="5" stroke-linecap="round"></line><circle cx="1612" cy="178" r="10" fill="#FFFFFF" stroke="#003366" stroke-width="4"></circle>
</svg>
