<svg xmlns="http://www.w3.org/2000/svg" viewBox="0 0 1800 280" width="1800" height="280" role="img" aria-labelledby="title desc">
<title id="title">crash-cart-map contextual handout visual</title>
<desc id="desc">응급카트 위치 지도와 서랍 구조, 이동 경로를 나타낸 그림. Text labels are provided in HTML outside the image.</desc>
<rect x="0" y="0" width="1800" height="280" rx="0" fill="#FFFFFF"></rect>
<path d="M 0 246 C 280 196, 500 262, 790 234 C 1120 202, 1320 274, 1800 226 L 1800 280 L 0 280 Z" fill="#EAF3FB" opacity="0.55"></path>
<path d="M 100 140 C 430 44, 650 230, 900 140 C 1150 50, 1380 230, 1700 132" fill="none" stroke="#B54708" stroke-width="8" stroke-linecap="round" stroke-linejoin="round" opacity="0.16"></path>
<rect x="100" y="40" width="290" height="200" rx="4" fill="#FFFFFF" stroke="#D9E6F2" stroke-width="24"></rect>
<line x1="400" y1="140" x2="525" y2="140" stroke="#B9D6EA" stroke-width="7" stroke-linecap="round"></line>
<polygon points="508,126 530,140 508,154" fill="#B9D6EA"></polygon>
<circle cx="245" cy="140" r="74" fill="#FFFFFF" stroke="#D7E6F2" stroke-width="4"></circle><circle cx="215" cy="112" r="18" fill="#B54708" opacity="0.12"></circle><path d="M 187 98 L 227 84 L 263 98 L 303 84 L 303 182 L 263 196 L 227 182 L 187 196 Z" fill="#FFFFFF" stroke="#003366" stroke-width="5" stroke-linecap="round" stroke-linejoin="round"></path><path d="M 209 168 C 229 120, 263 168, 283 116" fill="none" stroke="#B54708" stroke-width="7" stroke-linecap="round" stroke-linejoin="round"></path><circle cx="207" cy="170" r="9" fill="#B54708"></circle><circle cx="285" cy="114" r="9" fill="#003366"></circle>
<rect x="535" y="40" width="290" height="200" rx="4" fill="#FFFFFF" stroke="#D9E6F2" stroke-width="24"></rect>
<line x1="835" y1="140" x2="960" y2="140" stroke="#B9D6EA" stroke-width="7" stroke-linecap="round"></line>
<polygon points="943,126 965,140 943,154" fill="#B9D6EA"></polygon>
<circle cx="680" cy="140" r="74" fill="#FFFFFF" stroke="#D7E6F2" stroke-width="4"></circle><circle cx="650" cy="112" r="18" fill="#B54708" opacity="0.12"></circle><rect x="622" y="98" width="116" height="78" rx="6" fill="#FFFFFF" stroke="#003366" stroke-width="10"></rect><line x1="636" y1="126" x2="724" y2="126" stroke="#D0D5DD" stroke-width="4" stroke-linecap="round"></line><line x1="636" y1="150" x2="724" y2="150" stroke="#D0D5DD" stroke-width="4" stroke-linecap="round"></line><circle cx="646" cy="190" r="11" fill="#B54708"></circle><circle cx="714" cy="190" r="11" fill="#B54708"></circle><line x1="738" y1="120" x2="758" y2="104" stroke="#003366" stroke-width="5" stroke-linecap="round"></line>
<rect x="970" y="40" width="290" height="200" rx="4" fill="#FFFFFF" stroke="#D9E6F2" stroke-width="24"></rect>
<line x1="1270" y1="140" x2="1395" y2="140" stroke="#B9D6EA" stroke-width="7" stroke-linecap="round"></line>
<polygon points="1378,126 1400,140 1378,154" fill="#B9D6EA"></polygon>
<circle cx="1115" cy="140" r="74" fill="#FFFFFF" stroke="#D7E6F2" stroke-width="4"></circle><circle cx="1085" cy="112" r="18" fill="#B54708" opacity="0.12"></circle><rect x="1057" y="98" width="116" height="78" rx="6" fill="#FFFFFF" stroke="#003366" stroke-width="10"></rect><line x1="1071" y1="126" x2="1159" y2="126" stroke="#D0D5DD" stroke-width="4" stroke-linecap="round"></line><line x1="1071" y1="150" x2="1159" y2="150" stroke="#D0D5DD" stroke-width="4" stroke-linecap="round"></line><circle cx="1081" cy="190" r="11" fill="#B54708"></circle><circle cx="1149" cy="190" r="11" fill="#B54708"></circle>
<rect x="1405" y="40" width="290" height="200" rx="4" fill="#FFFFFF" stroke="#D9E6F2" stroke-width="24"></rect>
<circle cx="1550" cy="140" r="74" fill="#FFFFFF" stroke="#D7E6F2" stroke-width="4"></circle><circle cx="1520" cy="112" r="18" fill="#B54708" opacity="0.12"></circle><path d="M 1492 98 L 1532 84 L 1568 98 L 1608 84 L 1608 182 L 1568 196 L 1532 182 L 1492 196 Z" fill="#FFFFFF" stroke="#003366" stroke-width="5" stroke-linecap="round" stroke-linejoin="round"></path><path d="M 1514 168 C 1534 120, 1568 168, 1588 116" fill="none" stroke="#B54708" stroke-width="7" stroke-linecap="round" stroke-linejoin="round"></path><circle cx="1512" cy="170" r="9" fill="#B54708"></circle><circle cx="1590" cy="114" r="9" fill="#003366"></circle>
</svg>
