<svg xmlns="http://www.w3.org/2000/svg" viewBox="0 0 1800 280" width="1800" height="280" role="img" aria-labelledby="title desc">
<title id="title">crash-cart-checklist contextual handout visual</title>
<desc id="desc">응급카트 점검 항목: 제세동기, 약품 앰플, 기도 장비, 체크리스트. Text labels are provided in HTML outside the image.</desc>
<rect x="0" y="0" width="1800" height="280" rx="0" fill="#FFFFFF"></rect>
<path d="M 0 246 C 280 196, 500 262, 790 234 C 1120 202, 1320 274, 1800 226 L 1800 280 L 0 280 Z" fill="#EAF3FB" opacity="0.55"></path>
<path d="M 100 140 C 430 44, 650 230, 900 140 C 1150 50, 1380 230, 1700 132" fill="none" stroke="#C44536" stroke-width="8" stroke-linecap="round" stroke-linejoin="round" opacity="0.16"></path>
<rect x="100" y="40" width="290" height="200" rx="4" fill="#FFFFFF" stroke="#D9E6F2" stroke-width="24"></rect>
<line x1="400" y1="140" x2="525" y2="140" stroke="#B9D6EA" stroke-width="7" stroke-linecap="round"></line>
<polygon points="508,126 530,140 508,154" fill="#B9D6EA"></polygon>
<circle cx="245" cy="140" r="74" fill="#FFFFFF" stroke="#D7E6F2" stroke-width="4"></circle><circle cx="215" cy="112" r="18" fill="#C44536" opacity="0.12"></circle><rect x="187" y="98" width="116" height="78" rx="6" fill="#FFFFFF" stroke="#003366" stroke-width="10"></rect><line x1="201" y1="126" x2="289" y2="126" stroke="#D0D5DD" stroke-width="4" stroke-linecap="round"></line><line x1="201" y1="150" x2="289" y2="150" stroke="#D0D5DD" stroke-width="4" stroke-linecap="round"></line><circle cx="211" cy="190" r="11" fill="#C44536"></circle><circle cx="279" cy="190" r="11" fill="#C44536"></circle><line x1="303" y1="120" x2="323" y2="104" stroke="#003366" stroke-width="5" stroke-linecap="round"></line>
<rect x="535" y="40" width="290" height="200" rx="4" fill="#FFFFFF" stroke="#D9E6F2" stroke-width="24"></rect>
<line x1="835" y1="140" x2="960" y2="140" stroke="#B9D6EA" stroke-width="7" stroke-linecap="round"></line>
<polygon points="943,126 965,140 943,154" fill="#B9D6EA"></polygon>
<circle cx="680" cy="140" r="74" fill="#FFFFFF" stroke="#D7E6F2" stroke-width="4"></circle><circle cx="650" cy="112" r="18" fill="#C44536" opacity="0.12"></circle><rect x="632" y="102" width="96" height="76" rx="6" fill="#FFFFFF" stroke="#003366" stroke-width="14"></rect><path d="M 670 114 L 650 145 L 676 145 L 660 170 L 708 132 L 682 132 L 696 114 Z" fill="#C44536"></path><line x1="710" y1="152" x2="738" y2="174" stroke="#003366" stroke-width="5" stroke-linecap="round"></line><circle cx="742" cy="178" r="10" fill="#FFFFFF" stroke="#003366" stroke-width="4"></circle>
<rect x="970" y="40" width="290" height="200" rx="4" fill="#FFFFFF" stroke="#D9E6F2" stroke-width="24"></rect>
<line x1="1270" y1="140" x2="1395" y2="140" stroke="#B9D6EA" stroke-width="7" stroke-linecap="round"></line>
<polygon points="1378,126 1400,140 1378,154" fill="#B9D6EA"></polygon>
<circle cx="1115" cy="140" r="74" fill="#FFFFFF" stroke="#D7E6F2" stroke-width="4"></circle><circle cx="1085" cy="112" r="18" fill="#C44536" opacity="0.12"></circle><rect x="1067" y="122" width="96" height="36" rx="6" fill="#FFFFFF" stroke="#003366" stroke-width="18"></rect><line x1="1115" y1="122" x2="1115" y2="158" stroke="#D0D5DD" stroke-width="5" stroke-linecap="round"></line><path d="M 1071 178 C 1091 164, 1139 164, 1159 178" fill="none" stroke="#C44536" stroke-width="6" stroke-linecap="round" stroke-linejoin="round"></path>
<rect x="1405" y="40" width="290" height="200" rx="4" fill="#FFFFFF" stroke="#D9E6F2" stroke-width="24"></rect>
<circle cx="1550" cy="140" r="74" fill="#FFFFFF" stroke="#D7E6F2" stroke-width="4"></circle><circle cx="1520" cy="112" r="18" fill="#C44536" opacity="0.12"></circle><rect x="1502" y="84" width="96" height="112" rx="5" fill="#FFFFFF" stroke="#003366" stroke-width="12"></rect><rect x="1530" y="72" width="40" height="20" rx="4" fill="#EAF3FB" stroke="#003366" stroke-width="8"></rect><circle cx="1522" cy="115" r="6" fill="#C44536"></circle><line x1="1538" y1="115" x2="1582" y2="115" stroke="#98A2B3" stroke-width="5" stroke-linecap="round"></line><circle cx="1522" cy="143" r="6" fill="#C44536"></circle><line x1="1538" y1="143" x2="1582" y2="143" stroke="#98A2B3" stroke-width="5" stroke-linecap="round"></line><circle cx="1522" cy="171" r="6" fill="#C44536"></circle><line x1="1538" y1="171" x2="1582" y2="171" stroke="#98A2B3" stroke-width="5" stroke-linecap="round"></line>
</svg>
