<svg xmlns="http://www.w3.org/2000/svg" viewBox="0 0 1120 104" role="img"><rect width="1120" height="104" fill="#FBFCF8"/><path d="M0 91C180 52 290 123 470 74S760 22 1120 77v27H0Z" fill="#6C8EBF" opacity=".10"/><path d="M0 13C198 46 330-10 505 24S830 73 1120 27" fill="none" stroke="#D95D39" stroke-width="3" opacity=".18"/><rect x="64" y="18" width="398" height="68" rx="18" fill="#fff" stroke="#6C8EBF" stroke-width="3"/><path d="M88 54h120l28-26 28 45 30-32 28 13h116" fill="none" stroke="#003366" stroke-width="6" stroke-linecap="round" stroke-linejoin="round"/><path d="M450 64c60-35 105 20 160-5c28-13 43-6 70 7v32H450Z" fill="#7CB342"/><path d="M450 64c60-35 105 20 160-5c28-13 43-6 70 7" fill="none" stroke="#003366" stroke-width="6"/><circle cx="520" cy="38" r="12" fill="#6C8EBF"/><circle cx="575" cy="45" r="10" fill="#003366"/><circle cx="630" cy="38" r="12" fill="#6C8EBF"/></svg>