<svg xmlns="http://www.w3.org/2000/svg" viewBox="0 0 1800 280" width="1800" height="280" role="img" aria-labelledby="title desc">
<title id="title">egfr-proteinuria contextual handout visual</title>
<desc id="desc">eGFR과 단백뇨 이해: 콩팥, 필터, 소변 단백, 혈압 관리. Text labels are provided in HTML outside the image.</desc>
<rect x="0" y="0" width="1800" height="280" rx="0" fill="#FFFFFF"></rect>
<path d="M 0 246 C 280 196, 500 262, 790 234 C 1120 202, 1320 274, 1800 226 L 1800 280 L 0 280 Z" fill="#EAF3FB" opacity="0.55"></path>
<path d="M 100 140 C 430 44, 650 230, 900 140 C 1150 50, 1380 230, 1700 132" fill="none" stroke="#175CD3" stroke-width="8" stroke-linecap="round" stroke-linejoin="round" opacity="0.16"></path>
<rect x="100" y="40" width="290" height="200" rx="4" fill="#FFFFFF" stroke="#D9E6F2" stroke-width="24"></rect>
<line x1="400" y1="140" x2="525" y2="140" stroke="#B9D6EA" stroke-width="7" stroke-linecap="round"></line>
<polygon points="508,126 530,140 508,154" fill="#B9D6EA"></polygon>
<circle cx="245" cy="140" r="74" fill="#FFFFFF" stroke="#D7E6F2" stroke-width="4"></circle><circle cx="215" cy="112" r="18" fill="#175CD3" opacity="0.12"></circle><path d="M 209 188 C 167 150, 193 74, 235 102 C 255 128, 253 178, 209 188 Z" fill="#FCE7F3" stroke="#175CD3" stroke-width="6" stroke-linecap="round" stroke-linejoin="round"></path><path d="M 281 188 C 323 150, 297 74, 255 102 C 235 128, 237 178, 281 188 Z" fill="#FCE7F3" stroke="#175CD3" stroke-width="6" stroke-linecap="round" stroke-linejoin="round"></path>
<rect x="535" y="40" width="290" height="200" rx="4" fill="#FFFFFF" stroke="#D9E6F2" stroke-width="24"></rect>
<line x1="835" y1="140" x2="960" y2="140" stroke="#B9D6EA" stroke-width="7" stroke-linecap="round"></line>
<polygon points="943,126 965,140 943,154" fill="#B9D6EA"></polygon>
<circle cx="680" cy="140" r="74" fill="#FFFFFF" stroke="#D7E6F2" stroke-width="4"></circle><circle cx="650" cy="112" r="18" fill="#175CD3" opacity="0.12"></circle><circle cx="680" cy="140" r="44" fill="#FFFFFF" stroke="#175CD3" stroke-width="8"></circle>
<rect x="970" y="40" width="290" height="200" rx="4" fill="#FFFFFF" stroke="#D9E6F2" stroke-width="24"></rect>
<line x1="1270" y1="140" x2="1395" y2="140" stroke="#B9D6EA" stroke-width="7" stroke-linecap="round"></line>
<polygon points="1378,126 1400,140 1378,154" fill="#B9D6EA"></polygon>
<circle cx="1115" cy="140" r="74" fill="#FFFFFF" stroke="#D7E6F2" stroke-width="4"></circle><circle cx="1085" cy="112" r="18" fill="#175CD3" opacity="0.12"></circle><circle cx="1115" cy="140" r="44" fill="#FFFFFF" stroke="#175CD3" stroke-width="8"></circle>
<rect x="1405" y="40" width="290" height="200" rx="4" fill="#FFFFFF" stroke="#D9E6F2" stroke-width="24"></rect>
<circle cx="1550" cy="140" r="74" fill="#FFFFFF" stroke="#D7E6F2" stroke-width="4"></circle><circle cx="1520" cy="112" r="18" fill="#175CD3" opacity="0.12"></circle><rect x="1494" y="118" width="80" height="46" rx="5" fill="#FFFFFF" stroke="#003366" stroke-width="12"></rect><circle cx="1594" cy="144" r="28" fill="#E0F2FE" stroke="#003366" stroke-width="5"></circle><line x1="1594" y1="144" x2="1608" y2="128" stroke="#175CD3" stroke-width="6" stroke-linecap="round"></line>
</svg>
