<svg xmlns="http://www.w3.org/2000/svg" viewBox="0 0 1120 104" role="img"><rect width="1120" height="104" fill="#FBFCF8"/><path d="M0 91C180 52 290 123 470 74S760 22 1120 77v27H0Z" fill="#6C8EBF" opacity=".10"/><path d="M0 13C198 46 330-10 505 24S830 73 1120 27" fill="none" stroke="#D95D39" stroke-width="3" opacity=".18"/><circle cx="116" cy="52" r="24" fill="#003366" opacity=".16"/><path d="M106 52l8 9 16-19" fill="none" stroke="#003366" stroke-width="6" stroke-linecap="round" stroke-linejoin="round"/><circle cx="180" cy="52" r="24" fill="#6C8EBF" opacity=".16"/><path d="M170 52l8 9 16-19" fill="none" stroke="#6C8EBF" stroke-width="6" stroke-linecap="round" stroke-linejoin="round"/><circle cx="244" cy="52" r="24" fill="#D95D39" opacity=".16"/><path d="M234 52l8 9 16-19" fill="none" stroke="#D95D39" stroke-width="6" stroke-linecap="round" stroke-linejoin="round"/><circle cx="308" cy="52" r="24" fill="#7CB342" opacity=".16"/><path d="M298 52l8 9 16-19" fill="none" stroke="#7CB342" stroke-width="6" stroke-linecap="round" stroke-linejoin="round"/><rect x="450" y="18" width="110" height="58" rx="14" fill="#fff" stroke="#003366" stroke-width="5"/><path d="M464 49h24l10-18l19 36l14-18h19" fill="none" stroke="#6C8EBF" stroke-width="5" stroke-linecap="round"/><ellipse cx="630" cy="75" rx="85" ry="24" fill="#7CB342"/><rect x="590" y="35" width="110" height="24" rx="12" fill="#003366"/><rect x="570" y="60" width="110" height="24" rx="12" fill="#6C8EBF"/></svg>