<svg xmlns="http://www.w3.org/2000/svg" viewBox="0 0 1120 104" role="img"><rect width="1120" height="104" fill="#FBFDFF"/><path d="M0 91C180 52 290 123 470 74S760 22 1120 77v27H0Z" fill="#5B9BD5" opacity=".10"/><path d="M0 13C198 46 330-10 505 24S830 73 1120 27" fill="none" stroke="#8A5CF6" stroke-width="3" opacity=".18"/><rect x="450" y="18" width="110" height="58" rx="14" fill="#fff" stroke="#0B3D5C" stroke-width="5"/><path d="M464 49h24l10-18l19 36l14-18h19" fill="none" stroke="#5B9BD5" stroke-width="5" stroke-linecap="round"/><ellipse cx="630" cy="75" rx="85" ry="24" fill="#F97316"/><rect x="590" y="35" width="110" height="24" rx="12" fill="#0B3D5C"/><rect x="570" y="60" width="110" height="24" rx="12" fill="#5B9BD5"/><path d="M760 18l62 70H698Z" fill="#F97316" stroke="#0B3D5C" stroke-width="5" opacity=".85"/><circle cx="760" cy="69" r="8" fill="#0B3D5C"/><path d="M760 38v17" stroke="#0B3D5C" stroke-width="7" stroke-linecap="round"/></svg>