<svg xmlns="http://www.w3.org/2000/svg" viewBox="0 0 1120 104" role="img"><rect width="1120" height="104" fill="#FBFCF8"/><path d="M0 91C180 52 290 123 470 74S760 22 1120 77v27H0Z" fill="#6C8EBF" opacity=".10"/><path d="M0 13C198 46 330-10 505 24S830 73 1120 27" fill="none" stroke="#D95D39" stroke-width="3" opacity=".18"/><rect x="64" y="18" width="398" height="68" rx="18" fill="#fff" stroke="#6C8EBF" stroke-width="3"/><path d="M88 54h120l28-26 28 45 30-32 28 13h116" fill="none" stroke="#003366" stroke-width="6" stroke-linecap="round" stroke-linejoin="round"/><path d="M455 33c70-35 145-31 220 0l-20 52c-65-18-117-18-180 0z" fill="#fff" stroke="#003366" stroke-width="5"/><circle cx="515" cy="51" r="12" fill="#6C8EBF"/><circle cx="556" cy="65" r="16" fill="#7CB342"/><circle cx="598" cy="43" r="13" fill="#003366"/><circle cx="635" cy="61" r="11" fill="#6C8EBF"/></svg>