<svg xmlns="http://www.w3.org/2000/svg" viewBox="0 0 1120 104" role="img"><rect width="1120" height="104" fill="#FBFCF8"/><path d="M0 91C180 52 290 123 470 74S760 22 1120 77v27H0Z" fill="#6C8EBF" opacity=".10"/><path d="M0 13C198 46 330-10 505 24S830 73 1120 27" fill="none" stroke="#D95D39" stroke-width="3" opacity=".18"/><path d="M455 33c70-35 145-31 220 0l-20 52c-65-18-117-18-180 0z" fill="#fff" stroke="#003366" stroke-width="5"/><circle cx="515" cy="51" r="12" fill="#6C8EBF"/><circle cx="556" cy="65" r="16" fill="#7CB342"/><circle cx="598" cy="43" r="13" fill="#003366"/><circle cx="635" cy="61" r="11" fill="#6C8EBF"/><path d="M760 18l62 70H698Z" fill="#7CB342" stroke="#003366" stroke-width="5" opacity=".85"/><circle cx="760" cy="69" r="8" fill="#003366"/><path d="M760 38v17" stroke="#003366" stroke-width="7" stroke-linecap="round"/></svg>