<svg xmlns="http://www.w3.org/2000/svg" viewBox="0 0 1120 104" role="img"><rect width="1120" height="104" fill="#F8FBFD"/><path d="M0 91C180 52 290 123 470 74S760 22 1120 77v27H0Z" fill="#5B9BD5" opacity=".10"/><path d="M0 13C198 46 330-10 505 24S830 73 1120 27" fill="none" stroke="#2A9D8F" stroke-width="3" opacity=".18"/><rect x="54" y="16" width="385" height="72" rx="22" fill="#fff" stroke="#5B9BD5" stroke-width="3"/><rect x="681" y="16" width="385" height="72" rx="22" fill="#fff" stroke="#F4B942" stroke-width="3"/><path d="M490 52h140" stroke="#003366" stroke-width="6" stroke-linecap="round"/><path d="M610 38l22 14-22 14" fill="none" stroke="#003366" stroke-width="6" stroke-linecap="round"/><path d="M542 11v86M578 11v86" stroke="#003366" stroke-width="9" stroke-linecap="round"/><path d="M542 42C488 4 465 86 519 94C544 84 550 56 542 42Z" fill="#5B9BD5"/><path d="M578 42C632 4 655 86 601 94C576 84 570 56 578 42Z" fill="#5B9BD5"/></svg>