<svg xmlns="http://www.w3.org/2000/svg" viewBox="0 0 1120 104" role="img"><rect width="1120" height="104" fill="#FBFCF8"/><path d="M0 91C180 52 290 123 470 74S760 22 1120 77v27H0Z" fill="#6C8EBF" opacity=".10"/><path d="M0 13C198 46 330-10 505 24S830 73 1120 27" fill="none" stroke="#D95D39" stroke-width="3" opacity=".18"/><circle cx="116" cy="52" r="24" fill="#003366" opacity=".16"/><path d="M106 52l8 9 16-19" fill="none" stroke="#003366" stroke-width="6" stroke-linecap="round" stroke-linejoin="round"/><circle cx="180" cy="52" r="24" fill="#6C8EBF" opacity=".16"/><path d="M170 52l8 9 16-19" fill="none" stroke="#6C8EBF" stroke-width="6" stroke-linecap="round" stroke-linejoin="round"/><circle cx="244" cy="52" r="24" fill="#D95D39" opacity=".16"/><path d="M234 52l8 9 16-19" fill="none" stroke="#D95D39" stroke-width="6" stroke-linecap="round" stroke-linejoin="round"/><circle cx="308" cy="52" r="24" fill="#7CB342" opacity=".16"/><path d="M298 52l8 9 16-19" fill="none" stroke="#7CB342" stroke-width="6" stroke-linecap="round" stroke-linejoin="round"/><path d="M542 11v86M578 11v86" stroke="#003366" stroke-width="9" stroke-linecap="round"/><path d="M542 42C488 4 465 86 519 94C544 84 550 56 542 42Z" fill="#6C8EBF"/><path d="M578 42C632 4 655 86 601 94C576 84 570 56 578 42Z" fill="#6C8EBF"/></svg>