<svg xmlns="http://www.w3.org/2000/svg" viewBox="0 0 1800 280" width="1800" height="280" role="img" aria-labelledby="title desc">
<title id="title">fit-collection contextual handout visual</title>
<desc id="desc">분변잠혈검사 채취 키트, 검체 채취, 밀봉, 제출 단계. Text labels are provided in HTML outside the image.</desc>
<rect x="0" y="0" width="1800" height="280" rx="0" fill="#FFFFFF"></rect>
<path d="M 0 246 C 280 196, 500 262, 790 234 C 1120 202, 1320 274, 1800 226 L 1800 280 L 0 280 Z" fill="#EAF3FB" opacity="0.55"></path>
<path d="M 100 140 C 430 44, 650 230, 900 140 C 1150 50, 1380 230, 1700 132" fill="none" stroke="#6941C6" stroke-width="8" stroke-linecap="round" stroke-linejoin="round" opacity="0.16"></path>
<rect x="100" y="40" width="290" height="200" rx="4" fill="#FFFFFF" stroke="#D9E6F2" stroke-width="24"></rect>
<line x1="400" y1="140" x2="525" y2="140" stroke="#B9D6EA" stroke-width="7" stroke-linecap="round"></line>
<polygon points="508,126 530,140 508,154" fill="#B9D6EA"></polygon>
<circle cx="245" cy="140" r="74" fill="#FFFFFF" stroke="#D7E6F2" stroke-width="4"></circle><circle cx="215" cy="112" r="18" fill="#6941C6" opacity="0.12"></circle><rect x="189" y="104" width="112" height="72" rx="5" fill="#FFFFFF" stroke="#003366" stroke-width="12"></rect><circle cx="221" cy="140" r="18" fill="#FFF4E5" stroke="#F79009" stroke-width="5"></circle><line x1="249" y1="126" x2="279" y2="126" stroke="#98A2B3" stroke-width="5" stroke-linecap="round"></line><line x1="249" y1="150" x2="279" y2="150" stroke="#98A2B3" stroke-width="5" stroke-linecap="round"></line>
<rect x="535" y="40" width="290" height="200" rx="4" fill="#FFFFFF" stroke="#D9E6F2" stroke-width="24"></rect>
<line x1="835" y1="140" x2="960" y2="140" stroke="#B9D6EA" stroke-width="7" stroke-linecap="round"></line>
<polygon points="943,126 965,140 943,154" fill="#B9D6EA"></polygon>
<circle cx="680" cy="140" r="74" fill="#FFFFFF" stroke="#D7E6F2" stroke-width="4"></circle><circle cx="650" cy="112" r="18" fill="#6941C6" opacity="0.12"></circle><path d="M 638 160 C 646 118, 688 98, 716 148 C 694 178, 656 180, 638 160 Z" fill="#D0A36A" stroke="#8B5E34" stroke-width="5" stroke-linecap="round" stroke-linejoin="round"></path><line x1="704" y1="98" x2="734" y2="78" stroke="#003366" stroke-width="6" stroke-linecap="round"></line>
<rect x="970" y="40" width="290" height="200" rx="4" fill="#FFFFFF" stroke="#D9E6F2" stroke-width="24"></rect>
<line x1="1270" y1="140" x2="1395" y2="140" stroke="#B9D6EA" stroke-width="7" stroke-linecap="round"></line>
<polygon points="1378,126 1400,140 1378,154" fill="#B9D6EA"></polygon>
<circle cx="1115" cy="140" r="74" fill="#FFFFFF" stroke="#D7E6F2" stroke-width="4"></circle><circle cx="1085" cy="112" r="18" fill="#6941C6" opacity="0.12"></circle><rect x="1071" y="132" width="88" height="52" rx="5" fill="#FFFFFF" stroke="#003366" stroke-width="10"></rect><rect x="1081" y="98" width="68" height="34" rx="8" fill="#6941C6"></rect><path d="M 1087 158 L 1107 176 L 1147 126" fill="none" stroke="#12B76A" stroke-width="8" stroke-linecap="round" stroke-linejoin="round"></path>
<rect x="1405" y="40" width="290" height="200" rx="4" fill="#FFFFFF" stroke="#D9E6F2" stroke-width="24"></rect>
<circle cx="1550" cy="140" r="74" fill="#FFFFFF" stroke="#D7E6F2" stroke-width="4"></circle><circle cx="1520" cy="112" r="18" fill="#6941C6" opacity="0.12"></circle><path d="M 1496 116 L 1604 116 L 1592 194 L 1508 194 Z" fill="#FFFFFF" stroke="#003366" stroke-width="5" stroke-linecap="round" stroke-linejoin="round"></path><path d="M 1518 116 C 1522 78, 1578 78, 1582 116" fill="none" stroke="#6941C6" stroke-width="6" stroke-linecap="round" stroke-linejoin="round"></path>
</svg>
