<svg xmlns="http://www.w3.org/2000/svg" viewBox="0 0 1120 104" role="img"><rect width="1120" height="104" fill="#F8FBFD"/><path d="M0 91C180 52 290 123 470 74S760 22 1120 77v27H0Z" fill="#5B9BD5" opacity=".10"/><path d="M0 13C198 46 330-10 505 24S830 73 1120 27" fill="none" stroke="#2A9D8F" stroke-width="3" opacity=".18"/><circle cx="560" cy="52" r="55" fill="#fff" stroke="#003366" stroke-width="6"/><path d="M560 0v104M506 52h108" stroke="#5B9BD5" stroke-width="4" opacity=".7"/><circle cx="532" cy="28" r="14" fill="#F4B942"/><circle cx="591" cy="30" r="13" fill="#5B9BD5"/><circle cx="532" cy="76" r="12" fill="#003366"/><circle cx="590" cy="75" r="14" fill="#F4B942"/><path d="M760 18l62 70H698Z" fill="#F4B942" stroke="#003366" stroke-width="5" opacity=".85"/><circle cx="760" cy="69" r="8" fill="#003366"/><path d="M760 38v17" stroke="#003366" stroke-width="7" stroke-linecap="round"/></svg>