<svg xmlns="http://www.w3.org/2000/svg" viewBox="0 0 1120 104" role="img"><rect width="1120" height="104" fill="#FBFDFF"/><path d="M0 91C180 52 290 123 470 74S760 22 1120 77v27H0Z" fill="#5B9BD5" opacity=".10"/><path d="M0 13C198 46 330-10 505 24S830 73 1120 27" fill="none" stroke="#8A5CF6" stroke-width="3" opacity=".18"/><path d="M560 18v62" stroke="#0B3D5C" stroke-width="10" stroke-linecap="round"/><path d="M553 47C510-2 452 34 481 88C506 114 543 78 553 47Z" fill="#5B9BD5" opacity=".85"/><path d="M567 47C610-2 668 34 639 88C614 114 577 78 567 47Z" fill="#5B9BD5" opacity=".85"/><path d="M760 18l62 70H698Z" fill="#F97316" stroke="#0B3D5C" stroke-width="5" opacity=".85"/><circle cx="760" cy="69" r="8" fill="#0B3D5C"/><path d="M760 38v17" stroke="#0B3D5C" stroke-width="7" stroke-linecap="round"/></svg>