<svg xmlns="http://www.w3.org/2000/svg" viewBox="0 0 1120 104" role="img"><rect width="1120" height="104" fill="#FBFDFF"/><path d="M0 91C180 52 290 123 470 74S760 22 1120 77v27H0Z" fill="#5B9BD5" opacity=".10"/><path d="M0 13C198 46 330-10 505 24S830 73 1120 27" fill="none" stroke="#8A5CF6" stroke-width="3" opacity=".18"/><rect x="64" y="18" width="398" height="68" rx="18" fill="#fff" stroke="#5B9BD5" stroke-width="3"/><path d="M88 54h120l28-26 28 45 30-32 28 13h116" fill="none" stroke="#0B3D5C" stroke-width="6" stroke-linecap="round" stroke-linejoin="round"/><path d="M508 22C594-6 646 42 613 76C585 105 514 96 498 56C490 38 488 29 508 22Z" fill="#F97316"/><path d="M510 43c44 5 57 12 72 33c15 22-37 32-62 3" fill="none" stroke="#0B3D5C" stroke-width="9" stroke-linecap="round"/></svg>