<svg xmlns="http://www.w3.org/2000/svg" viewBox="0 0 1120 104" role="img"><rect width="1120" height="104" fill="#FBFCF8"/><path d="M0 91C180 52 290 123 470 74S760 22 1120 77v27H0Z" fill="#6C8EBF" opacity=".10"/><path d="M0 13C198 46 330-10 505 24S830 73 1120 27" fill="none" stroke="#D95D39" stroke-width="3" opacity=".18"/><circle cx="116" cy="52" r="24" fill="#003366" opacity=".16"/><path d="M106 52l8 9 16-19" fill="none" stroke="#003366" stroke-width="6" stroke-linecap="round" stroke-linejoin="round"/><circle cx="180" cy="52" r="24" fill="#6C8EBF" opacity=".16"/><path d="M170 52l8 9 16-19" fill="none" stroke="#6C8EBF" stroke-width="6" stroke-linecap="round" stroke-linejoin="round"/><circle cx="244" cy="52" r="24" fill="#D95D39" opacity=".16"/><path d="M234 52l8 9 16-19" fill="none" stroke="#D95D39" stroke-width="6" stroke-linecap="round" stroke-linejoin="round"/><circle cx="308" cy="52" r="24" fill="#7CB342" opacity=".16"/><path d="M298 52l8 9 16-19" fill="none" stroke="#7CB342" stroke-width="6" stroke-linecap="round" stroke-linejoin="round"/><path d="M508 22C594-6 646 42 613 76C585 105 514 96 498 56C490 38 488 29 508 22Z" fill="#7CB342"/><path d="M510 43c44 5 57 12 72 33c15 22-37 32-62 3" fill="none" stroke="#003366" stroke-width="9" stroke-linecap="round"/></svg>