<svg xmlns="http://www.w3.org/2000/svg" viewBox="0 0 1120 104" role="img"><rect width="1120" height="104" fill="#FBFDFF"/><path d="M0 91C180 52 290 123 470 74S760 22 1120 77v27H0Z" fill="#5B9BD5" opacity=".10"/><path d="M0 13C198 46 330-10 505 24S830 73 1120 27" fill="none" stroke="#8A5CF6" stroke-width="3" opacity=".18"/><circle cx="180" cy="52" r="18" fill="#0B3D5C" opacity=".55"/><circle cx="360" cy="52" r="18" fill="#5B9BD5" opacity=".55"/><circle cx="540" cy="52" r="18" fill="#8A5CF6" opacity=".55"/><circle cx="720" cy="52" r="18" fill="#F97316" opacity=".55"/><circle cx="900" cy="52" r="18" fill="#0B3D5C" opacity=".55"/><path d="M205 52h110" stroke="#0B3D5C" stroke-width="4" opacity=".25"/><path d="M385 52h110" stroke="#0B3D5C" stroke-width="4" opacity=".25"/><path d="M565 52h110" stroke="#0B3D5C" stroke-width="4" opacity=".25"/><path d="M745 52h110" stroke="#0B3D5C" stroke-width="4" opacity=".25"/><path d="M508 22C594-6 646 42 613 76C585 105 514 96 498 56C490 38 488 29 508 22Z" fill="#F97316"/><path d="M510 43c44 5 57 12 72 33c15 22-37 32-62 3" fill="none" stroke="#0B3D5C" stroke-width="9" stroke-linecap="round"/></svg>