<svg xmlns="http://www.w3.org/2000/svg" viewBox="0 0 1120 104" role="img"><rect width="1120" height="104" fill="#F8FBFD"/><path d="M0 91C180 52 290 123 470 74S760 22 1120 77v27H0Z" fill="#5B9BD5" opacity=".10"/><path d="M0 13C198 46 330-10 505 24S830 73 1120 27" fill="none" stroke="#2A9D8F" stroke-width="3" opacity=".18"/><circle cx="560" cy="52" r="47" fill="#fff" opacity=".85"/><path d="M134 52c115-45 210-32 320-6M666 59c115 41 225 36 340-7" fill="none" stroke="#5B9BD5" stroke-width="7" stroke-linecap="round" opacity=".35"/><path d="M508 22C594-6 646 42 613 76C585 105 514 96 498 56C490 38 488 29 508 22Z" fill="#F4B942"/><path d="M510 43c44 5 57 12 72 33c15 22-37 32-62 3" fill="none" stroke="#003366" stroke-width="9" stroke-linecap="round"/></svg>