<svg xmlns="http://www.w3.org/2000/svg" viewBox="0 0 1120 104" role="img"><rect width="1120" height="104" fill="#F8FBFD"/><path d="M0 91C180 52 290 123 470 74S760 22 1120 77v27H0Z" fill="#5B9BD5" opacity=".10"/><path d="M0 13C198 46 330-10 505 24S830 73 1120 27" fill="none" stroke="#2A9D8F" stroke-width="3" opacity=".18"/><path d="M508 22C594-6 646 42 613 76C585 105 514 96 498 56C490 38 488 29 508 22Z" fill="#F4B942"/><path d="M510 43c44 5 57 12 72 33c15 22-37 32-62 3" fill="none" stroke="#003366" stroke-width="9" stroke-linecap="round"/><path d="M760 18l62 70H698Z" fill="#F4B942" stroke="#003366" stroke-width="5" opacity=".85"/><circle cx="760" cy="69" r="8" fill="#003366"/><path d="M760 38v17" stroke="#003366" stroke-width="7" stroke-linecap="round"/></svg>