<svg xmlns="http://www.w3.org/2000/svg" viewBox="0 0 1800 280" width="1800" height="280" role="img" aria-labelledby="title desc">
<title id="title">hypertension-low-salt contextual handout visual</title>
<desc id="desc">저염 실천: 소금, 영양표시 확인, 국물 줄이기, 혈압 개선. Text labels are provided in HTML outside the image.</desc>
<rect x="0" y="0" width="1800" height="280" rx="0" fill="#FFFFFF"></rect>
<path d="M 0 246 C 280 196, 500 262, 790 234 C 1120 202, 1320 274, 1800 226 L 1800 280 L 0 280 Z" fill="#EAF3FB" opacity="0.55"></path>
<path d="M 100 140 C 430 44, 650 230, 900 140 C 1150 50, 1380 230, 1700 132" fill="none" stroke="#0E7490" stroke-width="8" stroke-linecap="round" stroke-linejoin="round" opacity="0.16"></path>
<rect x="100" y="40" width="290" height="200" rx="4" fill="#FFFFFF" stroke="#D9E6F2" stroke-width="24"></rect>
<line x1="400" y1="140" x2="525" y2="140" stroke="#B9D6EA" stroke-width="7" stroke-linecap="round"></line>
<polygon points="508,126 530,140 508,154" fill="#B9D6EA"></polygon>
<circle cx="245" cy="140" r="74" fill="#FFFFFF" stroke="#D7E6F2" stroke-width="4"></circle><circle cx="215" cy="112" r="18" fill="#0E7490" opacity="0.12"></circle><rect x="221" y="98" width="48" height="84" rx="5" fill="#FFFFFF" stroke="#003366" stroke-width="10"></rect><rect x="225" y="78" width="40" height="22" rx="4" fill="#E4E7EC" stroke="#003366" stroke-width="8"></rect><line x1="187" y1="82" x2="303" y2="198" stroke="#F04438" stroke-width="9" stroke-linecap="round"></line>
<rect x="535" y="40" width="290" height="200" rx="4" fill="#FFFFFF" stroke="#D9E6F2" stroke-width="24"></rect>
<line x1="835" y1="140" x2="960" y2="140" stroke="#B9D6EA" stroke-width="7" stroke-linecap="round"></line>
<polygon points="943,126 965,140 943,154" fill="#B9D6EA"></polygon>
<circle cx="680" cy="140" r="74" fill="#FFFFFF" stroke="#D7E6F2" stroke-width="4"></circle><circle cx="650" cy="112" r="18" fill="#0E7490" opacity="0.12"></circle><rect x="630" y="92" width="100" height="96" rx="5" fill="#FFFFFF" stroke="#003366" stroke-width="12"></rect><line x1="652" y1="120" x2="708" y2="120" stroke="#98A2B3" stroke-width="5" stroke-linecap="round"></line><line x1="652" y1="144" x2="698" y2="144" stroke="#98A2B3" stroke-width="5" stroke-linecap="round"></line><path d="M 646 170 L 668 188 L 718 130" fill="none" stroke="#12B76A" stroke-width="7" stroke-linecap="round" stroke-linejoin="round"></path>
<rect x="970" y="40" width="290" height="200" rx="4" fill="#FFFFFF" stroke="#D9E6F2" stroke-width="24"></rect>
<line x1="1270" y1="140" x2="1395" y2="140" stroke="#B9D6EA" stroke-width="7" stroke-linecap="round"></line>
<polygon points="1378,126 1400,140 1378,154" fill="#B9D6EA"></polygon>
<circle cx="1115" cy="140" r="74" fill="#FFFFFF" stroke="#D7E6F2" stroke-width="4"></circle><circle cx="1085" cy="112" r="18" fill="#0E7490" opacity="0.12"></circle><path d="M 1057 132 C 1077 188, 1153 188, 1173 132 Z" fill="#FFFFFF" stroke="#003366" stroke-width="5" stroke-linecap="round" stroke-linejoin="round"></path><path d="M 1073 132 C 1097 116, 1133 116, 1157 132" fill="none" stroke="#0E7490" stroke-width="6" stroke-linecap="round" stroke-linejoin="round"></path>
<rect x="1405" y="40" width="290" height="200" rx="4" fill="#FFFFFF" stroke="#D9E6F2" stroke-width="24"></rect>
<circle cx="1550" cy="140" r="74" fill="#FFFFFF" stroke="#D7E6F2" stroke-width="4"></circle><circle cx="1520" cy="112" r="18" fill="#0E7490" opacity="0.12"></circle><rect x="1494" y="118" width="80" height="46" rx="5" fill="#FFFFFF" stroke="#003366" stroke-width="12"></rect><circle cx="1594" cy="144" r="28" fill="#E0F2FE" stroke="#003366" stroke-width="5"></circle><line x1="1594" y1="144" x2="1608" y2="128" stroke="#0E7490" stroke-width="6" stroke-linecap="round"></line><path d="M 1532 86 L 1532 106 L 1516 106 L 1550 138 L 1584 106 L 1568 106 L 1568 86 Z" fill="#12B76A"></path>
</svg>
