<svg xmlns="http://www.w3.org/2000/svg" viewBox="0 0 1800 280" width="1800" height="280" role="img" aria-labelledby="title desc">
<title id="title">hypertension-intake contextual handout visual</title>
<desc id="desc">고혈압 초진 문진에 필요한 가정혈압, 기록지, 약, 심장 위험 요소. Text labels are provided in HTML outside the image.</desc>
<rect x="0" y="0" width="1800" height="280" rx="0" fill="#FFFFFF"></rect>
<path d="M 0 246 C 280 196, 500 262, 790 234 C 1120 202, 1320 274, 1800 226 L 1800 280 L 0 280 Z" fill="#EAF3FB" opacity="0.55"></path>
<path d="M 100 140 C 430 44, 650 230, 900 140 C 1150 50, 1380 230, 1700 132" fill="none" stroke="#175CD3" stroke-width="8" stroke-linecap="round" stroke-linejoin="round" opacity="0.16"></path>
<rect x="100" y="40" width="290" height="200" rx="4" fill="#FFFFFF" stroke="#D9E6F2" stroke-width="24"></rect>
<line x1="400" y1="140" x2="525" y2="140" stroke="#B9D6EA" stroke-width="7" stroke-linecap="round"></line>
<polygon points="508,126 530,140 508,154" fill="#B9D6EA"></polygon>
<circle cx="245" cy="140" r="74" fill="#FFFFFF" stroke="#D7E6F2" stroke-width="4"></circle><circle cx="215" cy="112" r="18" fill="#175CD3" opacity="0.12"></circle><rect x="189" y="118" width="80" height="46" rx="5" fill="#FFFFFF" stroke="#003366" stroke-width="12"></rect><circle cx="289" cy="144" r="28" fill="#E0F2FE" stroke="#003366" stroke-width="5"></circle><line x1="289" y1="144" x2="303" y2="128" stroke="#175CD3" stroke-width="6" stroke-linecap="round"></line>
<rect x="535" y="40" width="290" height="200" rx="4" fill="#FFFFFF" stroke="#D9E6F2" stroke-width="24"></rect>
<line x1="835" y1="140" x2="960" y2="140" stroke="#B9D6EA" stroke-width="7" stroke-linecap="round"></line>
<polygon points="943,126 965,140 943,154" fill="#B9D6EA"></polygon>
<circle cx="680" cy="140" r="74" fill="#FFFFFF" stroke="#D7E6F2" stroke-width="4"></circle><circle cx="650" cy="112" r="18" fill="#175CD3" opacity="0.12"></circle><rect x="630" y="98" width="100" height="84" rx="5" fill="#FFFFFF" stroke="#003366" stroke-width="12"></rect><rect x="630" y="98" width="100" height="20" rx="12" fill="#175CD3"></rect><line x1="648" y1="136" x2="712" y2="136" stroke="#D0D5DD" stroke-width="4" stroke-linecap="round"></line><line x1="648" y1="154" x2="712" y2="154" stroke="#D0D5DD" stroke-width="4" stroke-linecap="round"></line><line x1="648" y1="172" x2="712" y2="172" stroke="#D0D5DD" stroke-width="4" stroke-linecap="round"></line><path d="M 646 94 L 680 68 L 714 94" fill="none" stroke="#003366" stroke-width="5" stroke-linecap="round" stroke-linejoin="round"></path>
<rect x="970" y="40" width="290" height="200" rx="4" fill="#FFFFFF" stroke="#D9E6F2" stroke-width="24"></rect>
<line x1="1270" y1="140" x2="1395" y2="140" stroke="#B9D6EA" stroke-width="7" stroke-linecap="round"></line>
<polygon points="1378,126 1400,140 1378,154" fill="#B9D6EA"></polygon>
<circle cx="1115" cy="140" r="74" fill="#FFFFFF" stroke="#D7E6F2" stroke-width="4"></circle><circle cx="1085" cy="112" r="18" fill="#175CD3" opacity="0.12"></circle><rect x="1067" y="122" width="96" height="36" rx="6" fill="#FFFFFF" stroke="#003366" stroke-width="18"></rect><line x1="1115" y1="122" x2="1115" y2="158" stroke="#D0D5DD" stroke-width="5" stroke-linecap="round"></line><path d="M 1071 178 C 1091 164, 1139 164, 1159 178" fill="none" stroke="#175CD3" stroke-width="6" stroke-linecap="round" stroke-linejoin="round"></path>
<rect x="1405" y="40" width="290" height="200" rx="4" fill="#FFFFFF" stroke="#D9E6F2" stroke-width="24"></rect>
<circle cx="1550" cy="140" r="74" fill="#FFFFFF" stroke="#D7E6F2" stroke-width="4"></circle><circle cx="1520" cy="112" r="18" fill="#175CD3" opacity="0.12"></circle><circle cx="1550" cy="140" r="44" fill="#FFFFFF" stroke="#175CD3" stroke-width="8"></circle>
</svg>
