<svg xmlns="http://www.w3.org/2000/svg" viewBox="0 0 1120 104" role="img"><rect width="1120" height="104" fill="#FBFDFF"/><path d="M0 91C180 52 290 123 470 74S760 22 1120 77v27H0Z" fill="#5B9BD5" opacity=".10"/><path d="M0 13C198 46 330-10 505 24S830 73 1120 27" fill="none" stroke="#8A5CF6" stroke-width="3" opacity=".18"/><rect x="54" y="16" width="385" height="72" rx="22" fill="#fff" stroke="#5B9BD5" stroke-width="3"/><rect x="681" y="16" width="385" height="72" rx="22" fill="#fff" stroke="#F97316" stroke-width="3"/><path d="M490 52h140" stroke="#0B3D5C" stroke-width="6" stroke-linecap="round"/><path d="M610 38l22 14-22 14" fill="none" stroke="#0B3D5C" stroke-width="6" stroke-linecap="round"/><circle cx="560" cy="52" r="34" fill="#0B3D5C"/><g stroke="#0B3D5C" stroke-width="5" stroke-linecap="round"><path d="M560 8v18M560 78v18M516 52h18M586 52h18M529 21l13 13M591 70l13 13M591 34l13-13M529 83l13-13"/></g><path d="M660 18l42 18l-8 42c-5 18-19 29-34 36c-15-7-29-18-34-36l-8-42z" fill="#F97316" stroke="#5B9BD5" stroke-width="5" opacity=".8"/></svg>