<svg xmlns="http://www.w3.org/2000/svg" viewBox="0 0 1120 104" role="img"><rect width="1120" height="104" fill="#FBFCF8"/><path d="M0 91C180 52 290 123 470 74S760 22 1120 77v27H0Z" fill="#6C8EBF" opacity=".10"/><path d="M0 13C198 46 330-10 505 24S830 73 1120 27" fill="none" stroke="#D95D39" stroke-width="3" opacity=".18"/><circle cx="560" cy="52" r="47" fill="#fff" opacity=".85"/><path d="M134 52c115-45 210-32 320-6M666 59c115 41 225 36 340-7" fill="none" stroke="#6C8EBF" stroke-width="7" stroke-linecap="round" opacity=".35"/><circle cx="560" cy="52" r="34" fill="#003366"/><g stroke="#003366" stroke-width="5" stroke-linecap="round"><path d="M560 8v18M560 78v18M516 52h18M586 52h18M529 21l13 13M591 70l13 13M591 34l13-13M529 83l13-13"/></g><path d="M660 18l42 18l-8 42c-5 18-19 29-34 36c-15-7-29-18-34-36l-8-42z" fill="#7CB342" stroke="#6C8EBF" stroke-width="5" opacity=".8"/></svg>