<svg xmlns="http://www.w3.org/2000/svg" viewBox="0 0 1120 104" role="img"><rect width="1120" height="104" fill="#F8FBFD"/><path d="M0 91C180 52 290 123 470 74S760 22 1120 77v27H0Z" fill="#5B9BD5" opacity=".10"/><path d="M0 13C198 46 330-10 505 24S830 73 1120 27" fill="none" stroke="#2A9D8F" stroke-width="3" opacity=".18"/><circle cx="180" cy="52" r="18" fill="#003366" opacity=".55"/><circle cx="360" cy="52" r="18" fill="#5B9BD5" opacity=".55"/><circle cx="540" cy="52" r="18" fill="#2A9D8F" opacity=".55"/><circle cx="720" cy="52" r="18" fill="#F4B942" opacity=".55"/><circle cx="900" cy="52" r="18" fill="#003366" opacity=".55"/><path d="M205 52h110" stroke="#003366" stroke-width="4" opacity=".25"/><path d="M385 52h110" stroke="#003366" stroke-width="4" opacity=".25"/><path d="M565 52h110" stroke="#003366" stroke-width="4" opacity=".25"/><path d="M745 52h110" stroke="#003366" stroke-width="4" opacity=".25"/><rect x="480" y="35" width="150" height="32" rx="15" transform="rotate(-20 555 51)" fill="#5B9BD5"/><rect x="622" y="25" width="34" height="20" rx="5" transform="rotate(-20 639 35)" fill="#003366"/><path d="M650 31l64-22" stroke="#003366" stroke-width="4" stroke-linecap="round"/><path d="M450 86c68-24 152-24 220 0" fill="none" stroke="#F4B942" stroke-width="10" stroke-linecap="round"/></svg>