<svg xmlns="http://www.w3.org/2000/svg" viewBox="0 0 1800 280" width="1800" height="280" role="img" aria-labelledby="title desc">
<title id="title">iron-deficiency-anemia-diet contextual handout visual</title>
<desc id="desc">철분 식품, 비타민 C, 차와 우유 회피, 적혈구 회복을 나타낸 그림. Text labels are provided in HTML outside the image.</desc>
<rect x="0" y="0" width="1800" height="280" rx="0" fill="#FFFFFF"></rect>
<path d="M 0 246 C 280 196, 500 262, 790 234 C 1120 202, 1320 274, 1800 226 L 1800 280 L 0 280 Z" fill="#EAF3FB" opacity="0.55"></path>
<path d="M 100 140 C 430 44, 650 230, 900 140 C 1150 50, 1380 230, 1700 132" fill="none" stroke="#B42318" stroke-width="8" stroke-linecap="round" stroke-linejoin="round" opacity="0.16"></path>
<rect x="100" y="40" width="290" height="200" rx="4" fill="#FFFFFF" stroke="#D9E6F2" stroke-width="24"></rect>
<line x1="400" y1="140" x2="525" y2="140" stroke="#B9D6EA" stroke-width="7" stroke-linecap="round"></line>
<polygon points="508,126 530,140 508,154" fill="#B9D6EA"></polygon>
<circle cx="245" cy="140" r="74" fill="#FFFFFF" stroke="#D7E6F2" stroke-width="4"></circle><circle cx="215" cy="112" r="18" fill="#B42318" opacity="0.12"></circle><circle cx="245" cy="140" r="56" fill="#FFFFFF" stroke="#003366" stroke-width="5"></circle><path d="M 205 140 A 40 40 0 0 1 245 100 L 245 140 Z" fill="#FEC84B"></path><path d="M 245 100 A 40 40 0 0 1 285 140 L 245 140 Z" fill="#12B76A"></path><path d="M 285 140 A 40 40 0 0 1 205 140 L 245 140 Z" fill="#B42318"></path><circle cx="227" cy="158" r="10" fill="#B42318"></circle><circle cx="255" cy="162" r="9" fill="#B42318"></circle>
<rect x="535" y="40" width="290" height="200" rx="4" fill="#FFFFFF" stroke="#D9E6F2" stroke-width="24"></rect>
<line x1="835" y1="140" x2="960" y2="140" stroke="#B9D6EA" stroke-width="7" stroke-linecap="round"></line>
<polygon points="943,126 965,140 943,154" fill="#B9D6EA"></polygon>
<circle cx="680" cy="140" r="74" fill="#FFFFFF" stroke="#D7E6F2" stroke-width="4"></circle><circle cx="650" cy="112" r="18" fill="#B42318" opacity="0.12"></circle><circle cx="664" cy="128" r="26" fill="#FDB022" stroke="#003366" stroke-width="4"></circle><path d="M 698 86 C 734 126, 730 182, 698 188 C 666 182, 662 126, 698 86 Z" fill="#D1FADF" stroke="#B42318" stroke-width="5" stroke-linecap="round" stroke-linejoin="round"></path>
<rect x="970" y="40" width="290" height="200" rx="4" fill="#FFFFFF" stroke="#D9E6F2" stroke-width="24"></rect>
<line x1="1270" y1="140" x2="1395" y2="140" stroke="#B9D6EA" stroke-width="7" stroke-linecap="round"></line>
<polygon points="1378,126 1400,140 1378,154" fill="#B9D6EA"></polygon>
<circle cx="1115" cy="140" r="74" fill="#FFFFFF" stroke="#D7E6F2" stroke-width="4"></circle><circle cx="1085" cy="112" r="18" fill="#B42318" opacity="0.12"></circle><rect x="1071" y="130" width="76" height="42" rx="5" fill="#FFFFFF" stroke="#003366" stroke-width="8"></rect><path d="M 1147 138 C 1179 138, 1179 164, 1147 164" fill="none" stroke="#003366" stroke-width="5" stroke-linecap="round" stroke-linejoin="round"></path><line x1="1057" y1="82" x2="1173" y2="198" stroke="#F04438" stroke-width="10" stroke-linecap="round"></line>
<rect x="1405" y="40" width="290" height="200" rx="4" fill="#FFFFFF" stroke="#D9E6F2" stroke-width="24"></rect>
<circle cx="1550" cy="140" r="74" fill="#FFFFFF" stroke="#D7E6F2" stroke-width="4"></circle><circle cx="1520" cy="112" r="18" fill="#B42318" opacity="0.12"></circle><circle cx="1526" cy="130" r="24" fill="#FEE4E2" stroke="#D92D20" stroke-width="5"></circle><circle cx="1568" cy="120" r="24" fill="#FEE4E2" stroke="#D92D20" stroke-width="5"></circle><circle cx="1554" cy="158" r="24" fill="#FEE4E2" stroke="#D92D20" stroke-width="5"></circle>
</svg>
