<svg xmlns="http://www.w3.org/2000/svg" viewBox="0 0 1800 280" width="1800" height="280" role="img" aria-labelledby="title desc">
<title id="title">liver-enzyme-fatty-liver contextual handout visual</title>
<desc id="desc">간수치와 지방간 이해: 간, 검사 그래프, 복부둘레, 운동. Text labels are provided in HTML outside the image.</desc>
<rect x="0" y="0" width="1800" height="280" rx="0" fill="#FFFFFF"></rect>
<path d="M 0 246 C 280 196, 500 262, 790 234 C 1120 202, 1320 274, 1800 226 L 1800 280 L 0 280 Z" fill="#EAF3FB" opacity="0.55"></path>
<path d="M 100 140 C 430 44, 650 230, 900 140 C 1150 50, 1380 230, 1700 132" fill="none" stroke="#B54708" stroke-width="8" stroke-linecap="round" stroke-linejoin="round" opacity="0.16"></path>
<rect x="100" y="40" width="290" height="200" rx="4" fill="#FFFFFF" stroke="#D9E6F2" stroke-width="24"></rect>
<line x1="400" y1="140" x2="525" y2="140" stroke="#B9D6EA" stroke-width="7" stroke-linecap="round"></line>
<polygon points="508,126 530,140 508,154" fill="#B9D6EA"></polygon>
<circle cx="245" cy="140" r="74" fill="#FFFFFF" stroke="#D7E6F2" stroke-width="4"></circle><circle cx="215" cy="112" r="18" fill="#B54708" opacity="0.12"></circle><path d="M 175 136 C 187 78, 269 74, 313 124 C 293 178, 221 188, 175 136 Z" fill="#FEE4E2" stroke="#B54708" stroke-width="6" stroke-linecap="round" stroke-linejoin="round"></path><circle cx="259" cy="136" r="10" fill="#12B76A"></circle>
<rect x="535" y="40" width="290" height="200" rx="4" fill="#FFFFFF" stroke="#D9E6F2" stroke-width="24"></rect>
<line x1="835" y1="140" x2="960" y2="140" stroke="#B9D6EA" stroke-width="7" stroke-linecap="round"></line>
<polygon points="943,126 965,140 943,154" fill="#B9D6EA"></polygon>
<circle cx="680" cy="140" r="74" fill="#FFFFFF" stroke="#D7E6F2" stroke-width="4"></circle><circle cx="650" cy="112" r="18" fill="#B54708" opacity="0.12"></circle><rect x="662" y="80" width="36" height="102" rx="5" fill="#FFFFFF" stroke="#003366" stroke-width="12"></rect><rect x="662" y="144" width="36" height="38" rx="10" fill="#FEE4E2"></rect><line x1="644" y1="80" x2="716" y2="80" stroke="#B54708" stroke-width="8" stroke-linecap="round"></line><path d="M 614 190 L 648 170 L 676 178 L 714 136 L 746 146" fill="none" stroke="#B54708" stroke-width="6" stroke-linecap="round" stroke-linejoin="round"></path>
<rect x="970" y="40" width="290" height="200" rx="4" fill="#FFFFFF" stroke="#D9E6F2" stroke-width="24"></rect>
<line x1="1270" y1="140" x2="1395" y2="140" stroke="#B9D6EA" stroke-width="7" stroke-linecap="round"></line>
<polygon points="1378,126 1400,140 1378,154" fill="#B9D6EA"></polygon>
<circle cx="1115" cy="140" r="74" fill="#FFFFFF" stroke="#D7E6F2" stroke-width="4"></circle><circle cx="1085" cy="112" r="18" fill="#B54708" opacity="0.12"></circle><path d="M 1079 82 C 1097 120, 1097 160, 1075 196 M 1151 82 C 1133 120, 1133 160, 1155 196" fill="none" stroke="#003366" stroke-width="8" stroke-linecap="round" stroke-linejoin="round"></path><path d="M 1059 148 C 1095 166, 1135 166, 1171 148" fill="none" stroke="#B54708" stroke-width="7" stroke-linecap="round" stroke-linejoin="round"></path>
<rect x="1405" y="40" width="290" height="200" rx="4" fill="#FFFFFF" stroke="#D9E6F2" stroke-width="24"></rect>
<circle cx="1550" cy="140" r="74" fill="#FFFFFF" stroke="#D7E6F2" stroke-width="4"></circle><circle cx="1520" cy="112" r="18" fill="#B54708" opacity="0.12"></circle><circle cx="1550" cy="92" r="17" fill="#FFE7CC" stroke="#003366" stroke-width="5"></circle><line x1="1550" y1="112" x2="1550" y2="156" stroke="#003366" stroke-width="7" stroke-linecap="round"></line><line x1="1550" y1="138" x2="1518" y2="160" stroke="#B54708" stroke-width="7" stroke-linecap="round"></line><line x1="1550" y1="138" x2="1582" y2="158" stroke="#B54708" stroke-width="7" stroke-linecap="round"></line><line x1="1550" y1="156" x2="1522" y2="194" stroke="#003366" stroke-width="7" stroke-linecap="round"></line><line x1="1550" y1="156" x2="1582" y2="190" stroke="#003366" stroke-width="7" stroke-linecap="round"></line>
</svg>
