<svg xmlns="http://www.w3.org/2000/svg" viewBox="0 0 1800 280" width="1800" height="280" role="img" aria-labelledby="title desc">
<title id="title">migraine contextual handout visual</title>
<desc id="desc">편두통 이해: 뇌, 전조, 빛 민감, 어두운 휴식, 예방 루틴. Text labels are provided in HTML outside the image.</desc>
<rect x="0" y="0" width="1800" height="280" rx="0" fill="#FFFFFF"></rect>
<path d="M 0 246 C 280 196, 500 262, 790 234 C 1120 202, 1320 274, 1800 226 L 1800 280 L 0 280 Z" fill="#EAF3FB" opacity="0.55"></path>
<path d="M 100 140 C 430 44, 650 230, 900 140 C 1150 50, 1380 230, 1700 132" fill="none" stroke="#4A1FB8" stroke-width="8" stroke-linecap="round" stroke-linejoin="round" opacity="0.16"></path>
<rect x="100" y="40" width="290" height="200" rx="4" fill="#FFFFFF" stroke="#D9E6F2" stroke-width="24"></rect>
<line x1="400" y1="140" x2="525" y2="140" stroke="#B9D6EA" stroke-width="7" stroke-linecap="round"></line>
<polygon points="508,126 530,140 508,154" fill="#B9D6EA"></polygon>
<circle cx="245" cy="140" r="74" fill="#FFFFFF" stroke="#D7E6F2" stroke-width="4"></circle><circle cx="215" cy="112" r="18" fill="#4A1FB8" opacity="0.12"></circle><path d="M 191 136 C 179 98, 225 70, 251 98 C 285 70, 321 116, 287 158 C 295 200, 223 206, 205 168 C 177 164, 169 144, 191 136 Z" fill="#F4EBFF" stroke="#4A1FB8" stroke-width="6" stroke-linecap="round" stroke-linejoin="round"></path><path d="M 221 112 C 237 136, 217 156, 239 174 M 263 106 C 253 138, 283 152, 263 182" fill="none" stroke="#003366" stroke-width="4" stroke-linecap="round" stroke-linejoin="round"></path>
<rect x="535" y="40" width="290" height="200" rx="4" fill="#FFFFFF" stroke="#D9E6F2" stroke-width="24"></rect>
<line x1="835" y1="140" x2="960" y2="140" stroke="#B9D6EA" stroke-width="7" stroke-linecap="round"></line>
<polygon points="943,126 965,140 943,154" fill="#B9D6EA"></polygon>
<circle cx="680" cy="140" r="74" fill="#FFFFFF" stroke="#D7E6F2" stroke-width="4"></circle><circle cx="650" cy="112" r="18" fill="#4A1FB8" opacity="0.12"></circle><path d="M 626 140 C 656 88, 700 192, 734 140" fill="none" stroke="#9E77ED" stroke-width="10" stroke-linecap="round" stroke-linejoin="round"></path><path d="M 644 168 C 670 124, 702 184, 722 120" fill="none" stroke="#F670C7" stroke-width="8" stroke-linecap="round" stroke-linejoin="round"></path>
<rect x="970" y="40" width="290" height="200" rx="4" fill="#FFFFFF" stroke="#D9E6F2" stroke-width="24"></rect>
<line x1="1270" y1="140" x2="1395" y2="140" stroke="#B9D6EA" stroke-width="7" stroke-linecap="round"></line>
<polygon points="1378,126 1400,140 1378,154" fill="#B9D6EA"></polygon>
<circle cx="1115" cy="140" r="74" fill="#FFFFFF" stroke="#D7E6F2" stroke-width="4"></circle><circle cx="1085" cy="112" r="18" fill="#4A1FB8" opacity="0.12"></circle><rect x="1061" y="98" width="108" height="84" rx="5" fill="#101828" stroke="#003366" stroke-width="12"></rect><circle cx="1115" cy="140" r="28" fill="#FFFFFF" opacity="0.18"></circle><path d="M 1079 86 L 1151 194" fill="none" stroke="#4A1FB8" stroke-width="8" stroke-linecap="round" stroke-linejoin="round"></path>
<rect x="1405" y="40" width="290" height="200" rx="4" fill="#FFFFFF" stroke="#D9E6F2" stroke-width="24"></rect>
<circle cx="1550" cy="140" r="74" fill="#FFFFFF" stroke="#D7E6F2" stroke-width="4"></circle><circle cx="1520" cy="112" r="18" fill="#4A1FB8" opacity="0.12"></circle><circle cx="1550" cy="92" r="17" fill="#FFE7CC" stroke="#003366" stroke-width="5"></circle><line x1="1550" y1="112" x2="1550" y2="156" stroke="#003366" stroke-width="7" stroke-linecap="round"></line><line x1="1550" y1="138" x2="1518" y2="160" stroke="#4A1FB8" stroke-width="7" stroke-linecap="round"></line><line x1="1550" y1="138" x2="1582" y2="158" stroke="#4A1FB8" stroke-width="7" stroke-linecap="round"></line><line x1="1550" y1="156" x2="1522" y2="194" stroke="#003366" stroke-width="7" stroke-linecap="round"></line><line x1="1550" y1="156" x2="1582" y2="190" stroke="#003366" stroke-width="7" stroke-linecap="round"></line>
</svg>
