<svg xmlns="http://www.w3.org/2000/svg" viewBox="0 0 1800 280" width="1800" height="280" role="img" aria-labelledby="title desc">
<title id="title">post-colonoscopy contextual handout visual</title>
<desc id="desc">대장내시경 후 관리: 장, 진정, 식사, 출혈 신호. Text labels are provided in HTML outside the image.</desc>
<rect x="0" y="0" width="1800" height="280" rx="0" fill="#FFFFFF"></rect>
<path d="M 0 246 C 280 196, 500 262, 790 234 C 1120 202, 1320 274, 1800 226 L 1800 280 L 0 280 Z" fill="#EAF3FB" opacity="0.55"></path>
<path d="M 100 140 C 430 44, 650 230, 900 140 C 1150 50, 1380 230, 1700 132" fill="none" stroke="#7A2E0E" stroke-width="8" stroke-linecap="round" stroke-linejoin="round" opacity="0.16"></path>
<rect x="100" y="40" width="290" height="200" rx="4" fill="#FFFFFF" stroke="#D9E6F2" stroke-width="24"></rect>
<line x1="400" y1="140" x2="525" y2="140" stroke="#B9D6EA" stroke-width="7" stroke-linecap="round"></line>
<polygon points="508,126 530,140 508,154" fill="#B9D6EA"></polygon>
<circle cx="245" cy="140" r="74" fill="#FFFFFF" stroke="#D7E6F2" stroke-width="4"></circle><circle cx="215" cy="112" r="18" fill="#7A2E0E" opacity="0.12"></circle><path d="M 197 96 C 159 130, 173 198, 229 188 C 279 180, 299 160, 283 138 C 263 110, 233 134, 257 154" fill="none" stroke="#7A2E0E" stroke-width="18" stroke-linecap="round" stroke-linejoin="round"></path><path d="M 197 96 C 159 130, 173 198, 229 188 C 279 180, 299 160, 283 138 C 263 110, 233 134, 257 154" fill="none" stroke="#003366" stroke-width="5" stroke-linecap="round" stroke-linejoin="round"></path>
<rect x="535" y="40" width="290" height="200" rx="4" fill="#FFFFFF" stroke="#D9E6F2" stroke-width="24"></rect>
<line x1="835" y1="140" x2="960" y2="140" stroke="#B9D6EA" stroke-width="7" stroke-linecap="round"></line>
<polygon points="943,126 965,140 943,154" fill="#B9D6EA"></polygon>
<circle cx="680" cy="140" r="74" fill="#FFFFFF" stroke="#D7E6F2" stroke-width="4"></circle><circle cx="650" cy="112" r="18" fill="#7A2E0E" opacity="0.12"></circle><circle cx="664" cy="116" r="24" fill="#FFE7CC" stroke="#003366" stroke-width="5"></circle><rect x="628" y="148" width="104" height="34" rx="5" fill="#FFFFFF" stroke="#003366" stroke-width="12"></rect><path d="M 700 82 L 728 82 L 700 110 L 728 110" fill="none" stroke="#7A2E0E" stroke-width="5" stroke-linecap="round" stroke-linejoin="round"></path>
<rect x="970" y="40" width="290" height="200" rx="4" fill="#FFFFFF" stroke="#D9E6F2" stroke-width="24"></rect>
<line x1="1270" y1="140" x2="1395" y2="140" stroke="#B9D6EA" stroke-width="7" stroke-linecap="round"></line>
<polygon points="1378,126 1400,140 1378,154" fill="#B9D6EA"></polygon>
<circle cx="1115" cy="140" r="74" fill="#FFFFFF" stroke="#D7E6F2" stroke-width="4"></circle><circle cx="1085" cy="112" r="18" fill="#7A2E0E" opacity="0.12"></circle><circle cx="1115" cy="140" r="54" fill="#FFFFFF" stroke="#003366" stroke-width="5"></circle><path d="M 1083 148 C 1095 122, 1135 122, 1147 148" fill="#FEDF89" stroke="#F79009" stroke-width="4" stroke-linecap="round" stroke-linejoin="round"></path><line x1="1173" y1="98" x2="1173" y2="182" stroke="#003366" stroke-width="5" stroke-linecap="round"></line>
<rect x="1405" y="40" width="290" height="200" rx="4" fill="#FFFFFF" stroke="#D9E6F2" stroke-width="24"></rect>
<circle cx="1550" cy="140" r="74" fill="#FFFFFF" stroke="#D7E6F2" stroke-width="4"></circle><circle cx="1520" cy="112" r="18" fill="#7A2E0E" opacity="0.12"></circle><path d="M 1550 82 L 1612 190 L 1488 190 Z" fill="#FFF4E5" stroke="#F79009" stroke-width="6" stroke-linecap="round" stroke-linejoin="round"></path><line x1="1550" y1="122" x2="1550" y2="160" stroke="#F04438" stroke-width="8" stroke-linecap="round"></line><circle cx="1550" cy="176" r="6" fill="#F04438"></circle><path d="M 1598 98 C 1622 128, 1616 165, 1594 168 C 1572 165, 1572 128, 1598 98 Z" fill="#FEE4E2" stroke="#F04438" stroke-width="4" stroke-linecap="round" stroke-linejoin="round"></path>
</svg>
