<svg xmlns="http://www.w3.org/2000/svg" viewBox="0 0 1120 104" role="img"><rect width="1120" height="104" fill="#FBFCF8"/><path d="M0 91C180 52 290 123 470 74S760 22 1120 77v27H0Z" fill="#6C8EBF" opacity=".10"/><path d="M0 13C198 46 330-10 505 24S830 73 1120 27" fill="none" stroke="#D95D39" stroke-width="3" opacity=".18"/><circle cx="180" cy="52" r="18" fill="#003366" opacity=".55"/><circle cx="360" cy="52" r="18" fill="#6C8EBF" opacity=".55"/><circle cx="540" cy="52" r="18" fill="#D95D39" opacity=".55"/><circle cx="720" cy="52" r="18" fill="#7CB342" opacity=".55"/><circle cx="900" cy="52" r="18" fill="#003366" opacity=".55"/><path d="M205 52h110" stroke="#003366" stroke-width="4" opacity=".25"/><path d="M385 52h110" stroke="#003366" stroke-width="4" opacity=".25"/><path d="M565 52h110" stroke="#003366" stroke-width="4" opacity=".25"/><path d="M745 52h110" stroke="#003366" stroke-width="4" opacity=".25"/><path d="M560 18v62" stroke="#003366" stroke-width="10" stroke-linecap="round"/><path d="M553 47C510-2 452 34 481 88C506 114 543 78 553 47Z" fill="#6C8EBF" opacity=".85"/><path d="M567 47C610-2 668 34 639 88C614 114 577 78 567 47Z" fill="#6C8EBF" opacity=".85"/></svg>