<svg xmlns="http://www.w3.org/2000/svg" viewBox="0 0 1120 104" role="img"><rect width="1120" height="104" fill="#FBFDFF"/><path d="M0 91C180 52 290 123 470 74S760 22 1120 77v27H0Z" fill="#5B9BD5" opacity=".10"/><path d="M0 13C198 46 330-10 505 24S830 73 1120 27" fill="none" stroke="#8A5CF6" stroke-width="3" opacity=".18"/><circle cx="116" cy="52" r="24" fill="#0B3D5C" opacity=".16"/><path d="M106 52l8 9 16-19" fill="none" stroke="#0B3D5C" stroke-width="6" stroke-linecap="round" stroke-linejoin="round"/><circle cx="180" cy="52" r="24" fill="#5B9BD5" opacity=".16"/><path d="M170 52l8 9 16-19" fill="none" stroke="#5B9BD5" stroke-width="6" stroke-linecap="round" stroke-linejoin="round"/><circle cx="244" cy="52" r="24" fill="#8A5CF6" opacity=".16"/><path d="M234 52l8 9 16-19" fill="none" stroke="#8A5CF6" stroke-width="6" stroke-linecap="round" stroke-linejoin="round"/><circle cx="308" cy="52" r="24" fill="#F97316" opacity=".16"/><path d="M298 52l8 9 16-19" fill="none" stroke="#F97316" stroke-width="6" stroke-linecap="round" stroke-linejoin="round"/><path d="M560 18v62" stroke="#0B3D5C" stroke-width="10" stroke-linecap="round"/><path d="M553 47C510-2 452 34 481 88C506 114 543 78 553 47Z" fill="#5B9BD5" opacity=".85"/><path d="M567 47C610-2 668 34 639 88C614 114 577 78 567 47Z" fill="#5B9BD5" opacity=".85"/></svg>