<svg xmlns="http://www.w3.org/2000/svg" viewBox="0 0 1800 280" width="1800" height="280" role="img" aria-labelledby="title desc">
<title id="title">thyroid-function contextual handout visual</title>
<desc id="desc">갑상선 기능 검사 이해: 갑상선, 검사 그래프, 대사 속도, 추적 일정. Text labels are provided in HTML outside the image.</desc>
<rect x="0" y="0" width="1800" height="280" rx="0" fill="#FFFFFF"></rect>
<path d="M 0 246 C 280 196, 500 262, 790 234 C 1120 202, 1320 274, 1800 226 L 1800 280 L 0 280 Z" fill="#EAF3FB" opacity="0.55"></path>
<path d="M 100 140 C 430 44, 650 230, 900 140 C 1150 50, 1380 230, 1700 132" fill="none" stroke="#7F56D9" stroke-width="8" stroke-linecap="round" stroke-linejoin="round" opacity="0.16"></path>
<rect x="100" y="40" width="290" height="200" rx="4" fill="#FFFFFF" stroke="#D9E6F2" stroke-width="24"></rect>
<line x1="400" y1="140" x2="525" y2="140" stroke="#B9D6EA" stroke-width="7" stroke-linecap="round"></line>
<polygon points="508,126 530,140 508,154" fill="#B9D6EA"></polygon>
<circle cx="245" cy="140" r="74" fill="#FFFFFF" stroke="#D7E6F2" stroke-width="4"></circle><circle cx="215" cy="112" r="18" fill="#7F56D9" opacity="0.12"></circle><path d="M 211 182 C 179 144, 201 76, 241 110 L 249 110 C 289 76, 311 144, 279 182 C 261 160, 229 160, 211 182 Z" fill="#F4EBFF" stroke="#7F56D9" stroke-width="6" stroke-linecap="round" stroke-linejoin="round"></path>
<rect x="535" y="40" width="290" height="200" rx="4" fill="#FFFFFF" stroke="#D9E6F2" stroke-width="24"></rect>
<line x1="835" y1="140" x2="960" y2="140" stroke="#B9D6EA" stroke-width="7" stroke-linecap="round"></line>
<polygon points="943,126 965,140 943,154" fill="#B9D6EA"></polygon>
<circle cx="680" cy="140" r="74" fill="#FFFFFF" stroke="#D7E6F2" stroke-width="4"></circle><circle cx="650" cy="112" r="18" fill="#7F56D9" opacity="0.12"></circle><rect x="662" y="80" width="36" height="102" rx="5" fill="#FFFFFF" stroke="#003366" stroke-width="12"></rect><rect x="662" y="144" width="36" height="38" rx="10" fill="#FEE4E2"></rect><line x1="644" y1="80" x2="716" y2="80" stroke="#7F56D9" stroke-width="8" stroke-linecap="round"></line><path d="M 614 190 L 648 170 L 676 178 L 714 136 L 746 146" fill="none" stroke="#7F56D9" stroke-width="6" stroke-linecap="round" stroke-linejoin="round"></path>
<rect x="970" y="40" width="290" height="200" rx="4" fill="#FFFFFF" stroke="#D9E6F2" stroke-width="24"></rect>
<line x1="1270" y1="140" x2="1395" y2="140" stroke="#B9D6EA" stroke-width="7" stroke-linecap="round"></line>
<polygon points="1378,126 1400,140 1378,154" fill="#B9D6EA"></polygon>
<circle cx="1115" cy="140" r="74" fill="#FFFFFF" stroke="#D7E6F2" stroke-width="4"></circle><circle cx="1085" cy="112" r="18" fill="#7F56D9" opacity="0.12"></circle><circle cx="1115" cy="140" r="44" fill="#FFFFFF" stroke="#7F56D9" stroke-width="8"></circle>
<rect x="1405" y="40" width="290" height="200" rx="4" fill="#FFFFFF" stroke="#D9E6F2" stroke-width="24"></rect>
<circle cx="1550" cy="140" r="74" fill="#FFFFFF" stroke="#D7E6F2" stroke-width="4"></circle><circle cx="1520" cy="112" r="18" fill="#7F56D9" opacity="0.12"></circle><rect x="1500" y="98" width="100" height="84" rx="5" fill="#FFFFFF" stroke="#003366" stroke-width="12"></rect><rect x="1500" y="98" width="100" height="20" rx="12" fill="#7F56D9"></rect><line x1="1518" y1="136" x2="1582" y2="136" stroke="#D0D5DD" stroke-width="4" stroke-linecap="round"></line><line x1="1518" y1="154" x2="1582" y2="154" stroke="#D0D5DD" stroke-width="4" stroke-linecap="round"></line><line x1="1518" y1="172" x2="1582" y2="172" stroke="#D0D5DD" stroke-width="4" stroke-linecap="round"></line>
</svg>
