<svg xmlns="http://www.w3.org/2000/svg" viewBox="0 0 1800 280" width="1800" height="280" role="img" aria-labelledby="title desc">
<title id="title">thyroid-hormone-taking contextual handout visual</title>
<desc id="desc">갑상선호르몬 복용법: 공복 약, 커피 간격, 시간 맞추기. Text labels are provided in HTML outside the image.</desc>
<rect x="0" y="0" width="1800" height="280" rx="0" fill="#FFFFFF"></rect>
<path d="M 0 246 C 280 196, 500 262, 790 234 C 1120 202, 1320 274, 1800 226 L 1800 280 L 0 280 Z" fill="#EAF3FB" opacity="0.55"></path>
<path d="M 100 140 C 430 44, 650 230, 900 140 C 1150 50, 1380 230, 1700 132" fill="none" stroke="#7F56D9" stroke-width="8" stroke-linecap="round" stroke-linejoin="round" opacity="0.16"></path>
<rect x="100" y="40" width="290" height="200" rx="4" fill="#FFFFFF" stroke="#D9E6F2" stroke-width="24"></rect>
<line x1="400" y1="140" x2="525" y2="140" stroke="#B9D6EA" stroke-width="7" stroke-linecap="round"></line>
<polygon points="508,126 530,140 508,154" fill="#B9D6EA"></polygon>
<circle cx="245" cy="140" r="74" fill="#FFFFFF" stroke="#D7E6F2" stroke-width="4"></circle><circle cx="215" cy="112" r="18" fill="#7F56D9" opacity="0.12"></circle><rect x="197" y="122" width="96" height="36" rx="6" fill="#FFFFFF" stroke="#003366" stroke-width="18"></rect><line x1="245" y1="122" x2="245" y2="158" stroke="#D0D5DD" stroke-width="5" stroke-linecap="round"></line><path d="M 201 178 C 221 164, 269 164, 289 178" fill="none" stroke="#7F56D9" stroke-width="6" stroke-linecap="round" stroke-linejoin="round"></path><path d="M 211 182 C 187 150, 199 104, 233 120 C 245 130, 245 130, 257 120 C 291 104, 303 150, 279 182 C 257 162, 233 162, 211 182 Z" fill="#F4EBFF" stroke="#7F56D9" stroke-width="4" stroke-linecap="round" stroke-linejoin="round"></path>
<rect x="535" y="40" width="290" height="200" rx="4" fill="#FFFFFF" stroke="#D9E6F2" stroke-width="24"></rect>
<line x1="835" y1="140" x2="960" y2="140" stroke="#B9D6EA" stroke-width="7" stroke-linecap="round"></line>
<polygon points="943,126 965,140 943,154" fill="#B9D6EA"></polygon>
<circle cx="680" cy="140" r="74" fill="#FFFFFF" stroke="#D7E6F2" stroke-width="4"></circle><circle cx="650" cy="112" r="18" fill="#7F56D9" opacity="0.12"></circle><circle cx="680" cy="140" r="52" fill="#FFFFFF" stroke="#003366" stroke-width="5"></circle><path d="M 662 98 C 704 124, 704 164, 662 184 C 636 160, 638 122, 662 98 Z" fill="#FFF4E5" stroke="#F79009" stroke-width="5" stroke-linecap="round" stroke-linejoin="round"></path><line x1="622" y1="82" x2="738" y2="198" stroke="#F04438" stroke-width="9" stroke-linecap="round"></line>
<rect x="970" y="40" width="290" height="200" rx="4" fill="#FFFFFF" stroke="#D9E6F2" stroke-width="24"></rect>
<line x1="1270" y1="140" x2="1395" y2="140" stroke="#B9D6EA" stroke-width="7" stroke-linecap="round"></line>
<polygon points="1378,126 1400,140 1378,154" fill="#B9D6EA"></polygon>
<circle cx="1115" cy="140" r="74" fill="#FFFFFF" stroke="#D7E6F2" stroke-width="4"></circle><circle cx="1085" cy="112" r="18" fill="#7F56D9" opacity="0.12"></circle><rect x="1071" y="130" width="76" height="42" rx="5" fill="#FFFFFF" stroke="#003366" stroke-width="8"></rect><path d="M 1147 138 C 1179 138, 1179 164, 1147 164" fill="none" stroke="#003366" stroke-width="5" stroke-linecap="round" stroke-linejoin="round"></path><line x1="1057" y1="82" x2="1173" y2="198" stroke="#F04438" stroke-width="10" stroke-linecap="round"></line>
<rect x="1405" y="40" width="290" height="200" rx="4" fill="#FFFFFF" stroke="#D9E6F2" stroke-width="24"></rect>
<circle cx="1550" cy="140" r="74" fill="#FFFFFF" stroke="#D7E6F2" stroke-width="4"></circle><circle cx="1520" cy="112" r="18" fill="#7F56D9" opacity="0.12"></circle><circle cx="1550" cy="140" r="48" fill="#FFFFFF" stroke="#003366" stroke-width="6"></circle><line x1="1550" y1="140" x2="1550" y2="112" stroke="#7F56D9" stroke-width="7" stroke-linecap="round"></line><line x1="1550" y1="140" x2="1574" y2="152" stroke="#003366" stroke-width="6" stroke-linecap="round"></line>
</svg>
