<svg xmlns="http://www.w3.org/2000/svg" viewBox="0 0 1800 280" width="1800" height="280" role="img" aria-labelledby="title desc">
<title id="title">urine-collection contextual handout visual</title>
<desc id="desc">소변검체 채취 순서: 청결, 중간뇨, 용기 밀봉, 제출. Text labels are provided in HTML outside the image.</desc>
<rect x="0" y="0" width="1800" height="280" rx="0" fill="#FFFFFF"></rect>
<path d="M 0 246 C 280 196, 500 262, 790 234 C 1120 202, 1320 274, 1800 226 L 1800 280 L 0 280 Z" fill="#EAF3FB" opacity="0.55"></path>
<path d="M 100 140 C 430 44, 650 230, 900 140 C 1150 50, 1380 230, 1700 132" fill="none" stroke="#B54708" stroke-width="8" stroke-linecap="round" stroke-linejoin="round" opacity="0.16"></path>
<rect x="100" y="40" width="290" height="200" rx="4" fill="#FFFFFF" stroke="#D9E6F2" stroke-width="24"></rect>
<line x1="400" y1="140" x2="525" y2="140" stroke="#B9D6EA" stroke-width="7" stroke-linecap="round"></line>
<polygon points="508,126 530,140 508,154" fill="#B9D6EA"></polygon>
<circle cx="245" cy="140" r="74" fill="#FFFFFF" stroke="#D7E6F2" stroke-width="4"></circle><circle cx="215" cy="112" r="18" fill="#B54708" opacity="0.12"></circle><path d="M 207 94 L 283 94 L 271 188 L 219 188 Z" fill="#FFFFFF" stroke="#003366" stroke-width="5" stroke-linecap="round" stroke-linejoin="round"></path><rect x="217" y="154" width="56" height="28" rx="8" fill="#FEF0C7"></rect>
<rect x="535" y="40" width="290" height="200" rx="4" fill="#FFFFFF" stroke="#D9E6F2" stroke-width="24"></rect>
<line x1="835" y1="140" x2="960" y2="140" stroke="#B9D6EA" stroke-width="7" stroke-linecap="round"></line>
<polygon points="943,126 965,140 943,154" fill="#B9D6EA"></polygon>
<circle cx="680" cy="140" r="74" fill="#FFFFFF" stroke="#D7E6F2" stroke-width="4"></circle><circle cx="650" cy="112" r="18" fill="#B54708" opacity="0.12"></circle><path d="M 680 78 C 716 122, 710 188, 680 188 C 650 188, 644 122, 680 78 Z" fill="#E0F2FE" stroke="#B54708" stroke-width="5" stroke-linecap="round" stroke-linejoin="round"></path><path d="M 664 142 L 678 156 L 702 128" fill="none" stroke="#12B76A" stroke-width="7" stroke-linecap="round" stroke-linejoin="round"></path>
<rect x="970" y="40" width="290" height="200" rx="4" fill="#FFFFFF" stroke="#D9E6F2" stroke-width="24"></rect>
<line x1="1270" y1="140" x2="1395" y2="140" stroke="#B9D6EA" stroke-width="7" stroke-linecap="round"></line>
<polygon points="1378,126 1400,140 1378,154" fill="#B9D6EA"></polygon>
<circle cx="1115" cy="140" r="74" fill="#FFFFFF" stroke="#D7E6F2" stroke-width="4"></circle><circle cx="1085" cy="112" r="18" fill="#B54708" opacity="0.12"></circle><path d="M 1077 94 L 1153 94 L 1141 188 L 1089 188 Z" fill="#FFFFFF" stroke="#003366" stroke-width="5" stroke-linecap="round" stroke-linejoin="round"></path><rect x="1087" y="154" width="56" height="28" rx="8" fill="#FEF0C7"></rect><path d="M 1115 68 C 1137 96, 1133 124, 1115 128 C 1097 124, 1093 96, 1115 68 Z" fill="#E0F2FE" stroke="#B54708" stroke-width="4" stroke-linecap="round" stroke-linejoin="round"></path>
<rect x="1405" y="40" width="290" height="200" rx="4" fill="#FFFFFF" stroke="#D9E6F2" stroke-width="24"></rect>
<circle cx="1550" cy="140" r="74" fill="#FFFFFF" stroke="#D7E6F2" stroke-width="4"></circle><circle cx="1520" cy="112" r="18" fill="#B54708" opacity="0.12"></circle><path d="M 1496 116 L 1604 116 L 1592 194 L 1508 194 Z" fill="#FFFFFF" stroke="#003366" stroke-width="5" stroke-linecap="round" stroke-linejoin="round"></path><path d="M 1518 116 C 1522 78, 1578 78, 1582 116" fill="none" stroke="#B54708" stroke-width="6" stroke-linecap="round" stroke-linejoin="round"></path>
</svg>
