<svg xmlns="http://www.w3.org/2000/svg" viewBox="0 0 1120 104" role="img"><rect width="1120" height="104" fill="#FBFDFF"/><path d="M0 91C180 52 290 123 470 74S760 22 1120 77v27H0Z" fill="#5B9BD5" opacity=".10"/><path d="M0 13C198 46 330-10 505 24S830 73 1120 27" fill="none" stroke="#8A5CF6" stroke-width="3" opacity=".18"/><path d="M525 14C473 18 470 92 516 94C552 96 553 47 525 45Z" fill="#5B9BD5"/><path d="M595 14C647 18 650 92 604 94C568 96 567 47 595 45Z" fill="#5B9BD5"/><path d="M548 50c6 26 18 26 24 0" fill="none" stroke="#0B3D5C" stroke-width="8" stroke-linecap="round"/><path d="M760 18l62 70H698Z" fill="#F97316" stroke="#0B3D5C" stroke-width="5" opacity=".85"/><circle cx="760" cy="69" r="8" fill="#0B3D5C"/><path d="M760 38v17" stroke="#0B3D5C" stroke-width="7" stroke-linecap="round"/></svg>