<svg xmlns="http://www.w3.org/2000/svg" viewBox="0 0 1120 104" role="img"><rect width="1120" height="104" fill="#FBFDFF"/><path d="M0 91C180 52 290 123 470 74S760 22 1120 77v27H0Z" fill="#5B9BD5" opacity=".10"/><path d="M0 13C198 46 330-10 505 24S830 73 1120 27" fill="none" stroke="#8A5CF6" stroke-width="3" opacity=".18"/><circle cx="116" cy="52" r="24" fill="#0B3D5C" opacity=".16"/><path d="M106 52l8 9 16-19" fill="none" stroke="#0B3D5C" stroke-width="6" stroke-linecap="round" stroke-linejoin="round"/><circle cx="180" cy="52" r="24" fill="#5B9BD5" opacity=".16"/><path d="M170 52l8 9 16-19" fill="none" stroke="#5B9BD5" stroke-width="6" stroke-linecap="round" stroke-linejoin="round"/><circle cx="244" cy="52" r="24" fill="#8A5CF6" opacity=".16"/><path d="M234 52l8 9 16-19" fill="none" stroke="#8A5CF6" stroke-width="6" stroke-linecap="round" stroke-linejoin="round"/><circle cx="308" cy="52" r="24" fill="#F97316" opacity=".16"/><path d="M298 52l8 9 16-19" fill="none" stroke="#F97316" stroke-width="6" stroke-linecap="round" stroke-linejoin="round"/><circle cx="560" cy="52" r="34" fill="#0B3D5C"/><g stroke="#0B3D5C" stroke-width="5" stroke-linecap="round"><path d="M560 8v18M560 78v18M516 52h18M586 52h18M529 21l13 13M591 70l13 13M591 34l13-13M529 83l13-13"/></g><path d="M660 18l42 18l-8 42c-5 18-19 29-34 36c-15-7-29-18-34-36l-8-42z" fill="#F97316" stroke="#5B9BD5" stroke-width="5" opacity=".8"/></svg>