<svg width="48" height="48" viewBox="0 0 48 48" fill="none" xmlns="http://www.w3.org/2000/svg">
<path d="M38 10H4V19.375H11.2148L14.5629 13.9381L18.027 20.9381L20.0672 17.625H27.303C28.7436 14.879 31.6683 13 35.0419 13C36.0805 13 37.0766 13.1781 38 13.5048V10Z" fill="currentColor"/>
<path fill-rule="evenodd" clip-rule="evenodd" d="M21.1844 19.625H26.5618C26.4231 20.2276 26.35 20.8543 26.35 21.4978C26.35 26.191 30.2415 29.9956 35.0419 29.9956C36.0798 29.9956 37.0762 29.8173 38 29.4903V34H22V36H26C26.5523 36 27 36.4477 27 37C27 37.5523 26.5523 38 26 38H16C15.4477 38 15 37.5523 15 37C15 36.4477 15.4477 36 16 36H20V34H4V21.375H12.3319L14.3722 18.0619L17.8362 25.0619L21.1844 19.625ZM14 26H8V24H14V26ZM8 28V30H20V28H8Z" fill="currentColor"/>
<path fill-rule="evenodd" clip-rule="evenodd" d="M38.966 26.5307C37.8451 27.449 36.4117 28 34.8496 28C31.2598 28 28.3496 25.0899 28.3496 21.5C28.3496 17.9101 31.2598 15 34.8496 15C38.4395 15 41.3496 17.9101 41.3496 21.5C41.3496 22.8052 40.9649 24.0206 40.3027 25.0389L44.0567 28.7928L42.6425 30.2071L38.966 26.5307ZM39.3496 21.5C39.3496 23.9853 37.3349 26 34.8496 26C32.3643 26 30.3496 23.9853 30.3496 21.5C30.3496 19.0147 32.3643 17 34.8496 17C37.3349 17 39.3496 19.0147 39.3496 21.5Z" fill="currentColor"/>
</svg>
