<svg width="48" height="48" viewBox="0 0 48 48" fill="none" xmlns="http://www.w3.org/2000/svg">
<path d="M31.6286 27C30.515 23.8956 27.0719 19.8518 23.6958 15.8866C19.7819 11.2898 15.9581 6.79884 15.9581 4H10V44H18L18 39.185C16.8985 38.8807 15.7572 38.4569 14.5771 37.9062L15.4229 36.0939C18.511 37.535 21.1744 37.9726 23.4389 37.7106C25.6863 36.887 27.8456 35.4274 29.4521 33.7049C29.5081 33.6333 29.6235 33.505 29.7403 33.3754C29.8611 33.2412 29.9832 33.1056 30.0421 33.0297C30.5761 32.3759 31.0279 31.6932 31.3744 31H32C33.1046 31 34 30.1046 34 29C34 27.8954 33.1046 27 32 27H31.6286Z" fill="currentColor"/>
<path d="M32 34.7576C32 34.1371 32.3625 33.4603 32.7311 32.9324C33.1123 32.3865 33.5 32 33.5 32C33.5 32 33.8877 32.3865 34.2689 32.9324C34.6375 33.4603 35 34.1371 35 34.7576C35 35.5542 34.3284 36.2 33.5 36.2C32.6716 36.2 32 35.5542 32 34.7576Z" fill="currentColor"/>
<path d="M33 41.596C33 40.5619 33.6042 39.4338 34.2185 38.5541C34.8538 37.6442 35.5 37 35.5 37C35.5 37 36.1462 37.6442 36.7815 38.5541C37.3958 39.4338 38 40.5619 38 41.596C38 42.9237 36.8807 44 35.5 44C34.1193 44 33 42.9237 33 41.596Z" fill="currentColor"/>
</svg>
