<svg width="48" height="48" viewBox="0 0 48 48" fill="none" xmlns="http://www.w3.org/2000/svg">
<path fill-rule="evenodd" clip-rule="evenodd" d="M39.7146 25.3658C38.8362 23.5454 38.859 22.0063 38.8848 20.2587C38.8921 19.7637 38.8997 19.2519 38.8871 18.7124C38.8286 16.3645 38.0608 14.0823 36.6756 12.1389C35.1586 10.2889 33.1693 8.83941 30.8971 7.9286C28.014 6.65481 24.8731 5.99658 21.6945 6.00001C17.532 6.00001 13.5401 7.57402 10.5968 10.3758C7.65352 13.1775 6 16.9775 6 20.9397C6 25.7069 8.81421 29.3845 12.4667 32.1144V38.5626C13.5031 40.6709 17.4128 42.1661 19.697 41.9852C24.548 41.9852 25.4041 39.2689 25.4041 39.2689V37.8458C25.4041 37.8458 38.245 42.0576 38.245 31.9665C38.245 31.9665 41.6265 31.4504 41.9689 29.5761C42.3113 27.7019 39.7146 25.3658 39.7146 25.3658ZM34 25.5C34 26.3284 33.3284 27 32.5 27C31.6716 27 31 26.3284 31 25.5C31 24.6716 31.6716 24 32.5 24C33.3284 24 34 24.6716 34 25.5ZM22.8399 12.2105C24.1027 11.8368 25.537 11.9151 26.8191 12.8228C28.1467 13.7577 28.9407 15.3182 28.996 16.9285C29.0839 19.4464 27.7365 21.5794 26.1507 23.3131C24.9221 24.6562 23.4375 25.8747 22.1704 26.9146C21.8073 27.2127 21.462 27.4961 21.1457 27.7635L20.4948 28.314L19.8483 27.7584C19.4998 27.459 19.1142 27.14 18.7073 26.8033C17.4741 25.7831 16.0445 24.6004 14.859 23.309C13.2725 21.5809 11.9217 19.456 12.0035 16.931L12.0036 16.9293C12.0586 15.3183 12.8535 13.7568 14.1818 12.8219C15.4634 11.9191 16.8965 11.8408 18.1588 12.2131C18.5232 12.3206 18.8758 12.5497 19.2117 12.8223C19.4847 13.0439 19.7467 13.2943 19.9948 13.5315C20.1703 13.6992 20.3389 13.8603 20.4995 14C20.6603 13.8601 20.8289 13.6987 21.0045 13.5306C21.2518 13.2939 21.5129 13.0439 21.7851 12.8225C22.1215 12.5487 22.4748 12.3185 22.8399 12.2105Z" fill="currentColor"/>
</svg>
