<svg width="48" height="48" viewBox="0 0 48 48" fill="none" xmlns="http://www.w3.org/2000/svg">
<path fill-rule="evenodd" clip-rule="evenodd" d="M14.5 23C19.1944 23 23 19.1944 23 14.5C23 9.80558 19.1944 6 14.5 6C9.80558 6 6 9.80558 6 14.5C6 19.1944 9.80558 23 14.5 23ZM18.0585 13.3414C18.5188 13.0363 18.6447 12.4158 18.3396 11.9554C18.0345 11.4951 17.414 11.3692 16.9536 11.6743L10.9416 15.6588C10.4813 15.9639 10.3554 16.5845 10.6605 17.0448C10.9656 17.5052 11.5862 17.631 12.0465 17.3259L18.0585 13.3414Z" fill="currentColor"/>
<path fill-rule="evenodd" clip-rule="evenodd" d="M33.5 23C38.1944 23 42 19.1944 42 14.5C42 9.80558 38.1944 6 33.5 6C28.8056 6 25 9.80558 25 14.5C25 19.1944 28.8056 23 33.5 23ZM33.1876 10.7709C32.9961 10.2528 32.4209 9.98812 31.9029 10.1796C31.3848 10.3711 31.1201 10.9463 31.3116 11.4643L33.8124 18.2294C34.0039 18.7474 34.579 19.0121 35.0971 18.8206C35.6151 18.6291 35.8798 18.054 35.6883 17.5359L33.1876 10.7709Z" fill="currentColor"/>
<path fill-rule="evenodd" clip-rule="evenodd" d="M14.5 42C19.1944 42 23 38.1944 23 33.5C23 28.8056 19.1944 25 14.5 25C9.80558 25 6 28.8056 6 33.5C6 38.1944 9.80558 42 14.5 42ZM14.9666 37.2134C15.1794 37.723 15.765 37.9637 16.2747 37.7509C16.7843 37.5381 17.025 36.9525 16.8122 36.4428L14.0334 29.7871C13.8207 29.2774 13.235 29.0368 12.7254 29.2496C12.2157 29.4623 11.9751 30.048 12.1878 30.5576L14.9666 37.2134Z" fill="currentColor"/>
<path fill-rule="evenodd" clip-rule="evenodd" d="M33.5 42C38.1944 42 42 38.1944 42 33.5C42 28.8056 38.1944 25 33.5 25C28.8056 25 25 28.8056 25 33.5C25 38.1944 28.8056 42 33.5 42ZM30.0461 36.5463C30.0342 36.5339 30.0226 36.5211 30.0112 36.5079C29.6506 36.0896 29.6973 35.4582 30.1155 35.0975L35.5778 30.3876C35.9961 30.0269 36.628 30.0735 36.9887 30.4918C37.2592 30.8056 37.3005 31.2394 37.1276 31.5888C37.1204 31.6034 37.1129 31.6178 37.1049 31.632C37.0494 31.7318 36.9757 31.8236 36.8842 31.9025L31.4219 36.6125C31.0291 36.9512 30.4483 36.9306 30.0803 36.5804C30.0687 36.5694 30.0573 36.558 30.0461 36.5463Z" fill="currentColor"/>
</svg>
