<svg width="48" height="48" viewBox="0 0 48 48" fill="none" xmlns="http://www.w3.org/2000/svg">
<path fill-rule="evenodd" clip-rule="evenodd" d="M32.5 14.5C32.5 19.1944 28.6944 23 24 23C19.3056 23 15.5 19.1944 15.5 14.5C15.5 9.80558 19.3056 6 24 6C28.6944 6 32.5 9.80558 32.5 14.5ZM24.7246 18.1483C24.6785 18.6987 24.1662 19.1364 23.6158 19.0903C23.0654 19.0442 22.6567 18.5607 22.7028 18.0104L23.2775 10.7874C23.3236 10.237 23.9158 9.84761 24.4661 9.89372C24.7106 9.93946 25.239 10.2859 25.239 10.9075C25.239 11.2632 25.1167 12.8646 24.9857 14.5802C24.8877 15.8634 24.7849 17.2105 24.7246 18.1483Z" fill="currentColor"/>
<path fill-rule="evenodd" clip-rule="evenodd" d="M23 33.5C23 38.1944 19.1944 42 14.5 42C9.80558 42 6 38.1944 6 33.5C6 28.8056 9.80558 25 14.5 25C19.1944 25 23 28.8056 23 33.5ZM17.7572 36.7573C17.3666 37.1478 16.7335 37.1478 16.3429 36.7573L16.3415 36.7559L17.7572 35.3431C18.1477 35.7336 18.1477 36.3668 17.7572 36.7573ZM17.756 35.3419L16.3415 36.7559L11.2429 31.6573C10.8524 31.2668 10.8524 30.6336 11.2429 30.2431C11.6335 29.8526 12.2666 29.8526 12.6572 30.2431L12.658 30.2439L17.756 35.3419Z" fill="currentColor"/>
<path fill-rule="evenodd" clip-rule="evenodd" d="M42 31.5C42 36.1944 38.1944 40 33.5 40C28.8056 40 25 36.1944 25 31.5C25 26.8056 28.8056 23 33.5 23C38.1944 23 42 26.8056 42 31.5ZM37.7588 29.7451C37.9692 30.2558 37.7259 30.8403 37.2153 31.0507L30.548 33.7984L30.5469 33.7989C30.0362 34.0093 29.4517 33.7659 29.2413 33.2553C29.0308 32.7447 29.2742 32.1602 29.7848 31.9497L36.4532 29.2016C36.9638 28.9912 37.5484 29.2345 37.7588 29.7451Z" fill="currentColor"/>
</svg>
