<svg width="48" height="48" viewBox="0 0 48 48" fill="none" xmlns="http://www.w3.org/2000/svg">
<path fill-rule="evenodd" clip-rule="evenodd" d="M37.001 9C37.001 11.7614 34.7624 14 32.001 14C29.2396 14 27.001 11.7614 27.001 9C27.001 6.23858 29.2396 4 32.001 4C34.7624 4 37.001 6.23858 37.001 9ZM35.001 9C35.001 10.6569 33.6578 12 32.001 12C30.3441 12 29.001 10.6569 29.001 9C29.001 7.34315 30.3441 6 32.001 6C33.6578 6 35.001 7.34315 35.001 9Z" fill="currentColor"/>
<path fill-rule="evenodd" clip-rule="evenodd" d="M26.3169 12.5716C24.8883 11.8904 23.4091 11.8805 22.195 12.0247C18.8537 12.4214 16.3626 14.3515 14.7279 16.0547C13.382 17.4571 12.3846 18.9683 11.9116 19.6849L11.9055 19.6942C11.8059 19.845 11.7408 19.9435 11.6979 20.0043C10.7439 21.3589 11.0686 23.2305 12.4233 24.1845C13.7779 25.1385 15.6494 24.8138 16.6034 23.4592C16.723 23.2895 16.8523 23.095 16.9852 22.8951L16.9903 22.8873C17.4504 22.1954 18.0316 21.3234 18.8437 20.4367C18.2483 22.0902 17.6835 23.6768 17.5673 24.0782C17.3888 24.6952 17.4448 25.2178 17.4842 25.4684C17.5288 25.7527 17.6029 25.9873 17.6584 26.1424C17.7689 26.4513 17.9095 26.7284 18.0199 26.931C18.2486 27.3507 18.5508 27.8167 18.858 28.2653C19.4846 29.1801 20.3203 30.2936 21.1374 31.3555C21.8607 32.2954 22.5965 33.2298 23.1989 33.9948L23.4417 34.3033C23.7659 34.7152 24.0333 35.056 24.2287 35.3099L24.2973 35.3994C24.2973 35.3994 24.3509 35.6127 24.384 35.7554C24.4969 36.2411 24.629 36.882 24.7706 37.5989C24.8614 38.0584 24.9559 38.5487 25.0498 39.0361L25.0526 39.0507C25.24 40.0225 25.427 40.9927 25.5718 41.6476C25.9294 43.2654 27.5308 44.2869 29.1486 43.9293C30.7664 43.5717 31.7879 41.9702 31.4303 40.3525C31.3036 39.7791 31.1407 38.9346 30.9581 37.9865C30.8615 37.4852 30.7599 36.9579 30.6568 36.4361C30.5131 35.7084 30.3651 34.9856 30.2283 34.3971C30.1604 34.1051 30.0877 33.813 30.0126 33.5546L30.0106 33.5478C29.9606 33.3757 29.8302 32.9271 29.5937 32.5137C29.4346 32.2358 29.1616 31.8815 29.0112 31.6863L28.9831 31.6498C28.765 31.3665 28.4779 31.0008 28.1565 30.5924L27.9134 30.2836L27.9114 30.2811C27.4404 29.683 26.9026 28.9999 26.3565 28.2966C26.2506 28.1602 26.1444 28.023 26.0383 27.8856L28.0308 23.781C29.3545 24.6998 30.7558 25.1153 32.1002 25.1874C34.5764 25.3201 36.7382 24.2351 37.5524 23.8265L37.5778 23.8137C37.6724 23.7663 37.7353 23.7348 37.781 23.7133C39.2795 23.0064 39.9212 21.2186 39.2143 19.7201C38.5074 18.2216 36.7196 17.5799 35.2211 18.2868C35.1074 18.3404 34.9928 18.3957 34.8813 18.4495L34.8795 18.4504C33.954 18.8972 33.2019 19.2378 32.4212 19.196C32.0928 19.1784 31.7294 19.0827 31.3008 18.7389C30.8356 18.3658 30.1749 17.6009 29.4977 16.0476C28.8415 14.5424 27.8233 13.2898 26.3169 12.5716ZM24.2973 35.3994C24.2859 35.3551 24.3069 35.4338 24.2973 35.3994V35.3994ZM22.4308 14.0107C23.4664 13.8878 24.5117 13.9265 25.4562 14.3769C26.4257 14.8392 27.15 15.6672 27.6643 16.8469C28.4315 18.6066 29.2642 19.6693 30.0495 20.2991C30.8223 20.919 31.5915 21.1544 32.3142 21.1931C33.6529 21.2648 34.8374 20.6922 35.6766 20.2865L35.7489 20.2516C35.8624 20.1968 35.9696 20.1451 36.0744 20.0956C36.5739 19.86 37.1698 20.0739 37.4055 20.5734C37.6411 21.0729 37.4272 21.6688 36.9277 21.9044C36.8573 21.9376 36.7727 21.9801 36.6893 22.0219L36.681 22.0261C35.8765 22.4297 34.1254 23.293 32.2072 23.1902C31.0911 23.1304 29.9158 22.7557 28.7981 21.8592C28.6522 21.7422 28.5081 21.617 28.366 21.4833C28.1343 21.2654 27.8127 21.1707 27.4998 21.2283C27.187 21.2859 26.9202 21.4889 26.7813 21.7751L23.9692 27.5683C23.8041 27.9084 23.8449 28.3125 24.0747 28.6127C24.1518 28.7135 24.2295 28.8147 24.3075 28.9161C25.0159 29.8367 25.7369 30.7523 26.3401 31.5184L26.3434 31.5226L26.3441 31.5234L26.5851 31.8296C26.9073 32.2391 27.1878 32.5964 27.3983 32.8698L27.4073 32.8816C27.5867 33.1145 27.7755 33.3634 27.8578 33.5071C27.9663 33.6966 28.0423 33.9415 28.0921 34.113C28.1527 34.3212 28.216 34.5735 28.2802 34.8498C28.409 35.4041 28.5517 36.0997 28.6948 36.8237C28.7968 37.3402 28.8975 37.8629 28.9942 38.3648L28.997 38.3795C29.1763 39.3099 29.3441 40.181 29.4775 40.7842C29.5967 41.3234 29.2561 41.8572 28.7169 41.9764C28.1776 42.0957 27.6438 41.7551 27.5246 41.2159C27.3864 40.5907 27.2043 39.6463 27.0137 38.6576L27.0134 38.6563C26.9197 38.1703 26.8244 37.6757 26.7327 37.2113C26.5904 36.4909 26.453 35.8226 26.3321 35.3026C26.2715 35.0419 26.2175 34.8292 26.1716 34.6712C26.1381 34.556 26.0841 34.4477 26.0123 34.3516C25.9707 34.296 25.9068 34.211 25.8135 34.0898C25.6105 33.8262 25.3364 33.4769 25.0132 33.0662L24.7715 32.7592C24.168 31.9928 23.4384 31.0662 22.7225 30.1358C21.9096 29.0795 21.1019 28.0021 20.5081 27.1351C20.2133 26.7048 19.9561 26.3044 19.7761 25.974C19.6876 25.8117 19.6019 25.6377 19.5415 25.4688C19.5114 25.3846 19.4787 25.2775 19.4599 25.1579C19.4431 25.0506 19.4244 24.8559 19.4885 24.634C19.6095 24.2159 20.4154 21.9696 21.1651 19.8959C21.4213 19.1873 21.6743 18.4894 21.8973 17.8754C22.036 17.4934 21.9298 17.0654 21.6284 16.7927C21.3271 16.5199 20.8907 16.4567 20.5244 16.6326C19.4203 17.163 18.4502 17.953 17.6139 18.8244C16.5591 19.9235 15.8338 21.0145 15.3332 21.7675L15.3248 21.78C15.1857 21.9892 15.0707 22.1621 14.9683 22.3076C14.6503 22.7591 14.0264 22.8674 13.5749 22.5493C13.1233 22.2313 13.0151 21.6075 13.3331 21.156C13.3957 21.0671 13.4778 20.9428 13.5658 20.8093L13.5747 20.7959C14.0429 20.0865 14.957 18.7044 16.1709 17.4396C17.6524 15.8959 19.7428 14.3299 22.4308 14.0107Z" fill="currentColor"/>
<path fill-rule="evenodd" clip-rule="evenodd" d="M18.5641 29.7788C18.3462 29.4758 17.9777 29.3194 17.6084 29.3732C17.2391 29.4269 16.9305 29.6817 16.8079 30.0342L16.2832 31.5423L12.187 30.5796C10.5741 30.2005 8.95931 31.2008 8.58024 32.8137C8.20118 34.4266 9.20141 36.0414 10.8143 36.4204L17.5421 38.0016C19.0376 38.3531 20.5571 37.5179 21.0619 36.0669L21.5515 34.6594C21.6585 34.3518 21.609 34.0113 21.4188 33.7469L18.5641 29.7788ZM17.8761 33.0505L18.0645 32.509L19.4918 34.493L19.1729 35.4097C19.0046 35.8934 18.4982 36.1718 17.9996 36.0546L11.2719 34.4735C10.7343 34.3471 10.4008 33.8089 10.5272 33.2712C10.6536 32.7336 11.1918 32.4002 11.7295 32.5265L16.7028 33.6954C17.2014 33.8125 17.7078 33.5341 17.8761 33.0505Z" fill="currentColor"/>
</svg>
